<?xml version="1.0" standalone="no"?>
<!DOCTYPE svg PUBLIC "-//W3C//DTD SVG 1.1//EN" "http://www.w3.org/Graphics/SVG/1.1/DTD/svg11.dtd" >
<svg>
<metadata>
Created by FontForge 20090622 at Fri Mar  4 02:17:58 2016
 By deploy user
Copyright (c) 1992 Corel Corporation. All Rights Reserved.
</metadata>
<defs>
<font id="VAGRoundedLtNormal" horiz-adv-x="2191" >
  <font-face 
    font-family="VAGRounded Lt"
    font-weight="400"
    font-stretch="normal"
    units-per-em="4096"
    panose-1="0 0 4 0 0 0 0 0 0 0"
    ascent="3276"
    descent="-820"
    x-height="2183"
    cap-height="2945"
    bbox="-225 -913 4297.27 3789"
    underline-thickness="50"
    underline-position="-75"
    unicode-range="U+0020-U+F002"
  />
<missing-glyph horiz-adv-x="2048" 
d="M256 0v3166h1536v-3166h-1536zM512 256h1024v2654h-1024v-2654z" />
    <glyph glyph-name=".notdef" horiz-adv-x="2048" 
d="M256 0v3166h1536v-3166h-1536zM512 256h1024v2654h-1024v-2654z" />
    <glyph glyph-name=".null" horiz-adv-x="0" 
 />
    <glyph glyph-name="glyph2" horiz-adv-x="983" 
 />
    <glyph glyph-name="space" unicode=" " horiz-adv-x="983" 
 />
    <glyph glyph-name="exclam" unicode="!" horiz-adv-x="1135" 
d="M782 975q0 -187 -184 -201q-172 15 -172 193v1794q0 176 172 176q184 0 184 -176v-1786zM815 184q0 -85 -62 -147t-147 -62q-86 0 -149.5 61.5t-63.5 147.5q0 87 62.5 148t150.5 61q87 0 148 -61t61 -148z" />
    <glyph glyph-name="quotedbl" unicode="&#x22;" horiz-adv-x="1286" 
d="M1143 2191q0 -145 -176 -159q-160 15 -160 159v578q0 176 168 176t168 -176v-578zM561 2191q0 -143 -176 -159q-160 14 -160 159v578q0 176 168 176t168 -176v-578z" />
    <glyph glyph-name="numbersign" unicode="#" 
d="M2142 1888q0 -127 -168 -127h-286l-86 -610h253q160 0 160 -135q0 -127 -151 -127h-303l-107 -754q-13 -95 -40 -125q-32 -35 -111 -35q-141 0 -152 152q8 16 8 41l107 721h-492l-102 -754q-22 -160 -160 -160q-131 0 -143 152q8 16 8 49l94 713h-262q-146 0 -160 127
q13 135 176 135h287l86 610h-262q-151 0 -168 127q14 144 160 144h303l114 761q16 105 50.5 128.5t101.5 23.5q135 0 135 -143v-49l-94 -721h479l111 770q21 143 160 143q135 0 135 -184l-103 -729h254q168 0 168 -144zM1384 1761h-487l-82 -610h479z" />
    <glyph glyph-name="dollar" unicode="$" horiz-adv-x="1896" 
d="M1888 840q-44 -472 -413 -706q-180 -114 -410 -142v-209q0 -86 -90 -86q-78 0 -78 86v192q-420 0 -696 193q-113 79 -119 168q25 168 143 168q83 0 135 -33q288 -184 537 -184v1138q-535 165 -694 421q-96 153 -92 362q3 169 110 338q226 358 676 399v201q0 69 78 69
q90 0 90 -77v-193q365 -37 553 -192q70 -58 70 -152q0 -146 -168 -160q-67 20 -167 75q-137 74 -163 86q-52 24 -125 32v-897q407 -131 589 -301q234 -219 234 -596zM897 1798v836q-167 -19 -281 -128q-118 -113 -120 -282q-4 -284 401 -426zM1503 872q2 160 -90 279
q-91 116 -348 209v-1057q250 48 372 288q64 125 66 281z" />
    <glyph glyph-name="percent" unicode="%" horiz-adv-x="3031" 
d="M1417 2232q-2 -205 -87 -362q-169 -309 -539 -309q-271 0 -447 191q-179 194 -176 480q2 189 74 358q151 355 557 355q366 0 536 -332q84 -166 82 -381zM2232 2863q0 -40 -16 -78l-1143 -2744q-24 -98 -143 -98q-111 0 -139 114q16 57 32 95l1131 2711q48 115 127 115
q151 0 151 -115zM2863 639q-2 -207 -86 -362q-168 -310 -536 -310q-374 0 -544 332q-79 154 -79 340q0 425 281 616q143 97 350 97q292 0 461 -218q156 -200 153 -495zM1143 2241q0 192 -74 321q-92 158 -270 158q-175 0 -265 -131q-92 -135 -96 -348q-2 -125 46 -235
q46 -105 126 -166q86 -67 181 -62q352 18 352 463zM2593 664q0 191 -79 315q-93 147 -273 147q-173 0 -260 -130q-90 -135 -93 -349q-3 -186 96.5 -321t256.5 -133q116 2 199 71q153 129 153 400z" />
    <glyph glyph-name="ampersand" unicode="&#x26;" horiz-adv-x="2736" 
d="M2585 111q0 -58 -53 -94q-47 -33 -107 -33q-77 0 -119 49l-352 413q-252 -313 -591 -419q-163 -52 -331 -52q-516 0 -766 414q-119 195 -123 442q4 56 17 168q45 269 222 464q135 148 417 315q-245 260 -294 427q-26 88 -26 203q0 341 343 477q153 60 329 60
q282 0 481 -142q203 -146 199 -395q-3 -188 -119 -365q-113 -171 -409 -331l651 -774q64 80 147 213l90 143q99 176 193 176q151 0 151 -118q0 -187 -200 -434l-176 -213l376 -455q50 -61 50 -139zM1487 2376q0 131 -106 208q-95 70 -230 70q-301 0 -320 -295q9 -16 9 -53
q17 -77 98 -177q37 -46 102 -117l66 -75q381 197 381 439zM1745 688l-746 856q-488 -255 -503 -680q25 -336 280 -484q132 -78 289 -77q173 1 363 103q180 96 317 282z" />
    <glyph glyph-name="quotesingle" unicode="'" horiz-adv-x="762" 
d="M737 2785q0 -70 -32 -131l-259 -495q-68 -130 -167 -144q-158 28 -185 176q13 63 41 119l250 500q63 127 176 127q176 0 176 -152z" />
    <glyph glyph-name="parenleft" unicode="(" horiz-adv-x="831" 
d="M823 -279q0 -52 -45 -91.5t-98 -39.5q-97 0 -160 140q-196 440 -239 1066q-21 312 -19 588q2 257 37 546q60 509 213 933q55 152 176 152q135 0 135 -127q0 -99 -51 -250q-66 -195 -76 -246q-66 -328 -84 -659q-12 -219 -14 -381q-3 -245 15 -551q33 -577 194 -994
q16 -64 16 -86z" />
    <glyph glyph-name="parenright" unicode=")" horiz-adv-x="831" 
d="M721 1249q0 -955 -258 -1519q-64 -140 -160 -140q-137 0 -151 140q233 688 233 1622q0 820 -217 1470q0 41 -8 57q15 136 127 136q125 0 184 -152q250 -641 250 -1614z" />
    <glyph glyph-name="asterisk" unicode="*" horiz-adv-x="1593" 
d="M1450 1937q0 -137 -147 -143q-68 7 -136 61l-262 209q0 -69 18 -202t19 -199q1 -166 -151 -176q-53 -3 -97 44q-41 44 -47 116q49 181 49 393v24l-141 -122q-145 -126 -268 -148q-53 0 -93 51q-36 45 -42 101q12 81 81 110l381 160q-130 37 -378 145q-78 46 -93 125
q0 63 44.5 105.5t107.5 42.5q103 0 293 -165q97 -85 108 -93q-5 85 -49 401q0 68 42.5 118t109.5 50q143 0 143 -143q0 -67 -18.5 -209.5t-18.5 -216.5q82 80 261 218q69 40 137 40q139 0 139 -148q0 -75 -82 -110l-377 -160l393 -160q74 -33 74 -119z" />
    <glyph glyph-name="plus" unicode="+" horiz-adv-x="2458" 
d="M2273 1040q0 -168 -168 -168h-704v-712q0 -160 -168 -160t-168 168v704h-721q-141 0 -160 168q19 168 160 168h721v705q0 160 168 160t168 -160v-705h713q159 0 159 -168z" />
    <glyph glyph-name="comma" unicode="," horiz-adv-x="983" 
d="M713 233q0 -73 -25 -122l-262 -512q-61 -119 -184 -119q-153 0 -160 160q7 74 37 118l266 521q58 114 168 114q160 0 160 -160z" />
    <glyph glyph-name="hyphen" unicode="-" horiz-adv-x="1442" 
d="M1294 1098q0 -156 -168 -156h-815q-161 0 -176 148q15 167 168 167h823q168 0 168 -159z" />
    <glyph glyph-name="hyphen" unicode="&#x2010;" horiz-adv-x="1442" 
d="M1294 1098q0 -156 -168 -156h-815q-161 0 -176 148q15 167 168 167h823q168 0 168 -159z" />
    <glyph glyph-name="period" unicode="." horiz-adv-x="983" 
d="M721 184q0 -84 -62.5 -146.5t-146.5 -62.5q-83 0 -146 63t-63 146q0 85 62 147t147 62q86 0 147.5 -61.5t61.5 -147.5z" />
    <glyph glyph-name="slash" unicode="/" horiz-adv-x="1663" 
d="M1585 2793q0 -33 -16 -81l-1159 -2610q-56 -127 -177 -127q-146 0 -159 152q6 33 20 98l1163 2597q29 65 69 92q47 31 99 31q160 0 160 -152z" />
    <glyph glyph-name="zero" unicode="0" 
d="M2064 1503q0 -687 -264 -1107.5t-694 -420.5q-472 0 -729 447q-242 421 -242 1089q0 761 408 1190q224 235 563 244q231 6 425 -128q350 -245 476 -807q57 -255 57 -507zM1679 1425q0 805 -281 1080q-136 133 -308 129q-190 -5 -321 -176q-249 -324 -249 -963
q0 -724 259 -1044q132 -164 327 -164q367 0 509 578q64 259 64 560z" />
    <glyph glyph-name="one" unicode="1" horiz-adv-x="1442" 
d="M1032 168q0 -193 -184 -193q-79 0 -129 58q-47 55 -47 135v2441h-369q-154 0 -168 152q14 159 176 159h619q102 0 102 -102v-2650z" />
    <glyph glyph-name="two" unicode="2" 
d="M2007 152q0 -152 -160 -152h-1437q-163 0 -177 127q16 91 46 131l1105 1487q152 205 152 430q0 193 -134.5 322t-328.5 129q-299 0 -450 -297q-70 -137 -70 -297q0 -221 -176 -234q-8 8 -17 8q-153 14 -151 226q3 239 111 452q105 208 316 335q215 128 507 126
q211 -2 396 -102q390 -212 390 -660q0 -302 -217 -590l-967 -1282h1110q152 0 152 -159z" />
    <glyph glyph-name="three" unicode="3" 
d="M1946 856q0 -105 -17 -209q-27 -168 -148 -331q-252 -341 -798 -341q-397 0 -647 287q-116 132 -160 291q-4 34 -16 102q15 193 176 193q126 0 176 -160q112 -359 496 -409q310 11 478 257q82 121 83 255q3 585 -496 585q-227 0 -242 144q0 85 87 127q22 10 163 49
q175 48 265 170q94 129 88 358q-3 112 -64 215q-117 195 -346 195q-171 0 -285 -103q-120 -108 -133 -323q-5 -84 -48 -128q-48 -49 -120 -57q-168 18 -168 258q51 413 408 581q183 87 403 83q203 -3 373 -114q340 -223 340 -648q0 -393 -340 -614q492 -153 492 -713z" />
    <glyph glyph-name="four" unicode="4" 
d="M2073 897q0 -143 -177 -143h-167v-586q0 -83 -51.5 -138t-133.5 -55q-78 0 -127 53t-49 132v594h-1159q-163 0 -176 102q10 86 86 209l1057 1712q71 115 128 140q62 28 150 28q275 0 275 -291v-1589h184q69 0 114.5 -49.5t45.5 -118.5zM1368 1065v1495h-8l-856 -1495h864
z" />
    <glyph glyph-name="five" unicode="5" 
d="M1950 991q0 -42 -4 -86q-43 -469 -320 -709q-255 -221 -618 -221q-399 0 -667 211q-138 108 -165 269q0 151 127 151q82 0 152 -69q233 -230 536 -234q228 -3 401 165q166 162 169 445q3 216 -64 367q-126 281 -448 281q-89 0 -299 -63q-128 -39 -197 -48
q-111 0 -123 127q8 25 8 53l168 1131q16 111 36 138q15 21 95 21h1032q152 0 152 -159q0 -152 -160 -152h-823l-123 -794q180 81 369 81q469 0 674 -459q92 -208 92 -446z" />
    <glyph glyph-name="six" unicode="6" 
d="M1982 905q-3 -409 -272 -674q-260 -256 -629 -256q-527 0 -759 510q-108 236 -113 531q3 76 16 225q81 544 392 957q300 398 649 690q68 57 127 57q143 0 143 -176q0 -97 -182 -243q-77 -61 -113 -101q-232 -251 -467 -656h8q226 119 451 119q469 0 664 -517
q87 -231 85 -466zM1597 950q0 50 -4 90q-52 522 -487 537q-201 7 -351 -124q-142 -125 -169 -388q0 -43 -17 -143q8 -254 130 -421q139 -190 382 -190q263 0 399 195q117 168 117 444z" />
    <glyph glyph-name="seven" unicode="7" horiz-adv-x="1966" 
d="M1946 2847q0 -16 -41 -144l-1131 -2568q-70 -160 -221 -160q-130 0 -143 144q17 100 36 143l1057 2372h-1224q-170 0 -185 151q14 160 176 160h1491q185 0 185 -98z" />
    <glyph glyph-name="eight" unicode="8" 
d="M1991 889q0 -513 -410 -782q-202 -132 -475 -132q-551 0 -792 478q-113 222 -113 444q0 258 142 466q135 199 394 267q-185 100 -282 268q-103 177 -103 359q0 171 90 337q84 156 248 252q168 97 391 99q238 2 414 -94q344 -189 344 -594q0 -442 -377 -635
q257 -61 397 -267q132 -193 132 -466zM1511 2216q0 245 -188 362q-91 56 -213 56q-195 0 -308.5 -115t-113.5 -311q0 -430 418 -430q192 0 301 125q104 118 104 313zM1610 881q0 335 -236 499q-122 84 -284 82q-235 -4 -369.5 -180t-134.5 -410q0 -314 231 -492
q117 -91 273 -93q164 -2 285 83q235 165 235 511z" />
    <glyph glyph-name="nine" unicode="9" 
d="M1974 1896q0 -680 -517 -1327q-234 -293 -527 -536q-73 -49 -139 -49q-125 0 -144 159q8 25 8 50q19 39 138 149q150 137 165 154q209 228 459 655h-8q-181 -104 -442 -119q-226 12 -361 94q-267 162 -357 549q-41 174 -40 340q5 558 457 814q205 116 444 116
q389 0 629 -301q235 -296 235 -748zM1618 1855v119q0 265 -118 437q-137 198 -390 198q-262 0 -398 -195q-118 -170 -118 -444q0 -52 4 -90q27 -255 144 -389q122 -141 348 -148q198 -6 350 126q144 125 178 386z" />
    <glyph glyph-name="colon" unicode=":" horiz-adv-x="983" 
d="M721 1561q0 -88 -60.5 -148.5t-148.5 -60.5q-84 0 -146.5 62.5t-62.5 146.5t62.5 146t146.5 62q88 0 148.5 -60t60.5 -148zM721 184q0 -90 -59.5 -149.5t-149.5 -59.5q-86 0 -147.5 61.5t-61.5 147.5q0 85 62 147t147 62q88 0 148.5 -60.5t60.5 -148.5z" />
    <glyph glyph-name="semicolon" unicode=";" horiz-adv-x="983" 
d="M721 1561q0 -88 -60.5 -148.5t-148.5 -60.5q-84 0 -146.5 62.5t-62.5 146.5t62.5 146t146.5 62q88 0 148.5 -60t60.5 -148zM721 242q0 -56 -33 -123l-258 -520q-55 -111 -180 -111q-66 0 -115.5 47t-52.5 113q6 50 29 94l282 545q55 106 168 106q160 0 160 -151z" />
    <glyph glyph-name="less" unicode="&#x3c;" horiz-adv-x="2458" 
d="M2281 1962q0 -104 -131 -168l-1536 -754l1561 -778q98 -49 98 -151q0 -136 -139 -136q-26 0 -111 33l-1728 856q-96 47 -111 160q14 133 135 193l1696 847q66 33 127 33q139 0 139 -135z" />
    <glyph glyph-name="equal" unicode="=" horiz-adv-x="2458" 
d="M2265 1462q0 -168 -160 -168h-1745q-157 0 -176 160q18 176 176 176h1754q151 0 151 -168zM2265 606q0 -168 -160 -168h-1745q-157 0 -176 160q18 176 176 176h1754q151 0 151 -168z" />
    <glyph glyph-name="greater" unicode="&#x3e;" horiz-adv-x="2458" 
d="M2273 1024q0 -103 -114 -160l-1721 -856q-66 -33 -119 -33q-116 0 -135 136q17 123 103 151l1560 778l-1536 754q-129 63 -143 172q0 57 48 95q44 36 103 36q61 0 127 -33l1696 -847q131 -65 131 -193z" />
    <glyph glyph-name="question" unicode="?" horiz-adv-x="1815" 
d="M1753 2224q0 -689 -696 -840v-426q0 -169 -185 -184q-176 15 -176 184v545q0 93 59 137q40 29 147 56q117 28 155 41q295 73 295 397q0 217 -131.5 346t-348.5 129q-352 0 -442 -299q-52 -174 -172 -180q-100 33 -133 63q-45 42 -51 134q8 32 8 81q49 216 276 377
q231 163 539 160q196 -2 391 -87q426 -186 465 -634zM1090 184q0 -82 -63.5 -145.5t-145.5 -63.5q-86 0 -151.5 62t-65.5 147q0 87 64.5 148t152.5 61q84 0 146.5 -62.5t62.5 -146.5z" />
    <glyph glyph-name="at" unicode="@" horiz-adv-x="3281" 
d="M3133 1720q0 -438 -285 -777q-137 -163 -324 -260q-206 -108 -402 -105q-268 4 -291 237h-16q-188 -224 -488 -237q-360 20 -519 334q-74 145 -79 321q38 597 449 898q204 150 477 150q329 0 479 -307l57 168q28 83 51 102q27 21 85 21q151 0 151 -106q0 -9 -2 -27
t-2 -27l-291 -995l-24 -135q0 -106 122 -119q390 93 504 560q33 134 33 272q0 597 -576 861q-281 128 -595 122q-307 -6 -591 -162q-294 -162 -451 -452q-150 -277 -150 -623q0 -334 170.5 -608t469.5 -427q285 -146 568 -149q231 -2 404 41q241 61 534 295q138 110 217 110
q102 0 102 -98q0 -53 -65 -143q-201 -231 -665 -392q-263 -92 -535 -88q-392 5 -743 204q-345 195 -550 527q-208 334 -210 728q-2 452 224 797q224 341 574 524q357 186 705 190q391 4 727 -146q685 -308 747 -993q4 -44 4 -86zM1982 1671q0 295 -245 303q-251 8 -405 -139
t-206 -332q-15 -52 -36 -237q11 -311 335 -377q337 22 491 434q66 178 66 348z" />
    <glyph glyph-name="A" unicode="A" horiz-adv-x="2503" 
d="M2474 111q0 -144 -168 -144q-61 0 -112 35q-47 30 -72 100l-193 529h-1351l-193 -529q-46 -127 -184 -127q-155 0 -168 144q5 24 13 53l11 45l942 2519q40 107 104 161q68 56 146 56q85 0 152 -54q63 -52 102 -155l955 -2527q16 -66 16 -106zM1823 942l-566 1585h-8
l-561 -1585h1135z" />
    <glyph glyph-name="B" unicode="B" horiz-adv-x="2200" 
d="M2081 840q0 -474 -428 -719q-211 -121 -494 -121h-721q-196 0 -196 193v2535q0 192 184 192h655q444 0 665 -343q105 -164 109 -345q3 -119 -39 -256q-91 -301 -366 -391v-8q461 -92 582 -458q49 -148 49 -279zM1495 2150q0 199 -119 327q-122 132 -319 132h-459v-921
h418q302 0 424 237q55 107 55 225zM1720 848q2 139 -67 268q-148 277 -535 277h-520v-1082h483q413 0 565 266q72 125 74 271z" />
    <glyph glyph-name="C" unicode="C" horiz-adv-x="2433" 
d="M2327 385q0 -93 -54 -135q-300 -279 -864 -275q-639 5 -984 493q-298 422 -298 949q0 644 327 1070q347 454 963 458q320 2 590 -139q135 -70 217 -172q49 -61 49 -140q0 -137 -151 -151q-67 16 -90 33q-206 150 -273 184q-141 72 -317 74q-313 3 -523.5 -176
t-305.5 -443q-98 -272 -101 -528q-2 -234 77 -514q77 -273 273 -474q199 -205 522 -212q206 -4 355 56q145 57 334 169q56 33 118 33q136 0 136 -160z" />
    <glyph glyph-name="D" unicode="D" horiz-adv-x="2585" 
d="M2458 1470q-3 -423 -149 -762q-305 -708 -1092 -708h-771q-73 0 -128 42q-60 46 -60 118v2568q0 192 188 192h738q380 0 673 -187.5t450 -533.5q153 -338 151 -729zM2073 1495q0 519 -258 818q-256 296 -689 296h-512v-2298h562q315 0 566 221q331 292 331 963z" />
    <glyph glyph-name="E" unicode="E" horiz-adv-x="1815" 
d="M1647 160q0 -160 -177 -160h-1052q-176 0 -176 193v2527q0 76 36 133q43 67 115 67h1102q152 0 152 -167q0 -168 -160 -168h-889v-963h811q160 0 160 -168t-168 -168h-803v-950h897q152 0 152 -176z" />
    <glyph glyph-name="F" unicode="F" horiz-adv-x="1663" 
d="M1630 2744q0 -159 -168 -159h-864v-963h778q160 0 160 -172q0 -67 -42.5 -115.5t-109.5 -48.5h-786v-1118q0 -193 -180 -193q-78 0 -127 53t-49 132v2560q0 76 36 133q43 67 115 67h1102q135 0 135 -176z" />
    <glyph glyph-name="G" unicode="G" horiz-adv-x="2736" 
d="M2646 1335q0 -753 -438 -1126q-275 -234 -799 -234q-640 0 -983 495q-296 425 -299 947q-4 647 326 1070q162 208 406 329q253 125 558 129q307 4 591 -97q264 -94 409 -263q41 -48 41 -119q0 -69 -55 -115q-51 -42 -122 -45q-79 6 -139 53q-188 147 -324 205
q-166 70 -376 70q-475 0 -718 -385q-209 -331 -212 -762q-4 -624 349 -983q203 -206 523 -217q221 -7 445 100q461 221 461 821v127h-521q-151 0 -167 160q14 176 151 176h655q238 0 238 -270v-66z" />
    <glyph glyph-name="H" unicode="H" horiz-adv-x="2736" 
d="M2494 176q0 -201 -184 -201q-81 0 -130 61q-46 57 -46 140v1127h-1536v-1127q0 -201 -180 -201q-176 0 -176 201v2560q0 209 176 209q180 0 180 -209v-1118h1536v1118q0 87 44 148q49 69 132 69q184 0 184 -217v-2560z" />
    <glyph glyph-name="I" unicode="I" horiz-adv-x="831" 
d="M598 176q0 -201 -172 -201q-184 0 -184 193v2585q0 192 184 192q172 0 172 -192v-2577z" />
    <glyph glyph-name="J" unicode="J" horiz-adv-x="1442" 
d="M1282 762q0 -418 -215 -629q-151 -148 -444 -158q-127 -4 -296 43q-360 101 -360 277q0 151 144 151q48 0 98 -16l112 -72q110 -71 285 -71q316 0 316 401v2073q0 184 176 184q184 0 184 -184v-1999z" />
    <glyph glyph-name="K" unicode="K" horiz-adv-x="2281" 
d="M2318 119q0 -69 -55 -112q-50 -40 -121 -40q-88 0 -180 90l-1364 1336v-1233q0 -185 -180 -185q-78 0 -127 53t-49 132v2593q0 192 176 192q180 0 180 -184v-1073l1290 1183q81 74 160 74q152 0 152 -168q0 -88 -70 -151l-1200 -1082l1327 -1282q61 -46 61 -143z" />
    <glyph glyph-name="L" unicode="L" horiz-adv-x="1511" 
d="M1544 176q0 -176 -151 -176h-983q-63 0 -115.5 49.5t-52.5 167.5v2536q0 192 184 192q172 0 172 -209v-2400h737q209 0 209 -160z" />
    <glyph glyph-name="M" unicode="M" horiz-adv-x="3416" 
d="M3297 209q0 -242 -176 -242q-161 0 -184 160l-336 2359l-713 -2375q-43 -144 -176 -144q-141 0 -184 144l-705 2375l-344 -2375q-26 -177 -200 -177q-156 0 -168 209q8 33 8 82l426 2470q22 130 95 192q77 66 175 66q97 0 170 -51q66 -46 96 -149l623 -2139h8l623 2155
q26 89 97 136.5t161 47.5q107 0 184 -63q74 -61 94 -178z" />
    <glyph glyph-name="N" unicode="N" horiz-adv-x="2728" 
d="M2494 152q0 -185 -159 -185q-121 0 -201 115l-1536 2208v-2138q0 -177 -180 -177q-176 0 -176 185v2601q0 192 151 192q119 0 205 -123l1532 -2199h4v2122q0 81 48.5 136.5t127.5 55.5q184 0 184 -192v-2601z" />
    <glyph glyph-name="O" unicode="O" horiz-adv-x="2802" 
d="M2687 1454q3 -391 -153 -737q-159 -350 -450 -544q-295 -198 -675 -198q-365 0 -660 191q-288 187 -453 519q-169 337 -169 769q0 389 143 718q156 358 453 567q293 206 686 206q593 0 940 -444q161 -207 247 -474q88 -279 91 -573zM2306 1462q3 566 -260 880
q-245 292 -637 292q-539 0 -778 -538q-119 -266 -119 -634q0 -653 363 -989q200 -186 534 -186q307 0 526 188q202 173 298 475q72 225 73 512z" />
    <glyph glyph-name="P" unicode="P" horiz-adv-x="2130" 
d="M2089 2007q3 -375 -258.5 -646t-638.5 -271h-594v-938q0 -77 -51 -127t-129 -50t-127 53t-49 132v2568q0 192 176 192h725q393 0 660 -233q283 -249 286 -680zM1729 2015q0 269 -166.5 431.5t-436.5 162.5h-528v-1208h512q271 0 445 171.5t174 442.5z" />
    <glyph glyph-name="Q" unicode="Q" horiz-adv-x="2802" 
d="M2802 86q0 -135 -160 -135q-62 0 -123 49l-295 287q-337 -312 -815 -312q-365 0 -660 191q-288 187 -453 519q-169 337 -169 769q0 389 143 718q156 358 453 567q293 206 686 206q593 0 940 -444q161 -207 247 -474q88 -277 91 -573q3 -246 -68 -493q-68 -239 -186 -424
l336 -336q33 -45 33 -115zM2306 1462q0 569 -260 880q-245 292 -637 292q-539 0 -778 -538q-119 -266 -119 -634q0 -653 363 -989q200 -186 534 -186q349 0 582 233l-262 254q-50 48 -66 131q0 60 46 106t106 46q76 0 139 -49l213 -217q139 312 139 671z" />
    <glyph glyph-name="R" unicode="R" horiz-adv-x="2130" 
d="M2048 111q0 -127 -168 -127q-102 0 -168 73l-1114 1225v-1130q0 -177 -180 -177q-176 0 -176 185v2568q0 192 176 192h700q480 0 741 -392q141 -211 132 -480q-6 -192 -87 -358q-137 -281 -477 -358q-166 -38 -387 -38l934 -1024q74 -68 74 -159zM1630 2097
q2 150 -72 271q-150 241 -468 241h-492v-1040h508q384 0 477 253q45 120 47 275z" />
    <glyph glyph-name="S" unicode="S" horiz-adv-x="1896" 
d="M1888 889q0 -518 -448 -782q-224 -132 -535 -132q-226 0 -430 60q-197 57 -307 141q-82 63 -86 160q-3 71 44 125q44 51 116 51q38 0 102 -33q284 -192 606 -192q310 0 472 290q73 131 73 279q0 278 -301 430q-131 66 -334 136l-254 89q-147 69 -262 158
q-105 81 -167 203q-64 126 -66 303q-2 219 127 399q266 371 745 371q356 0 586 -152q119 -79 119 -192q0 -146 -168 -160q-80 19 -200 76q-159 76 -196 90q-70 27 -166 27q-196 0 -320.5 -115t-150.5 -311q13 -250 344 -393q180 -62 534 -199q122 -52 235 -130
q288 -199 288 -597z" />
    <glyph glyph-name="T" unicode="T" horiz-adv-x="1745" 
d="M1815 2753q0 -168 -160 -168h-565v-2425q0 -80 -52.5 -132.5t-132.5 -52.5q-78 0 -127 53t-49 132v2425h-561q-154 0 -168 168q15 167 176 167h1462q177 0 177 -167z" />
    <glyph glyph-name="U" unicode="U" horiz-adv-x="2728" 
d="M2494 1126q0 -733 -490 -1010q-249 -141 -620 -141q-572 0 -863 314q-279 301 -279 829v1643q0 184 176 184q180 0 180 -184v-1753q0 -462 386 -638q188 -86 409 -83t398 99q351 189 351 622v1753q0 184 168 184q184 0 184 -184v-1635z" />
    <glyph glyph-name="V" unicode="V" horiz-adv-x="2281" 
d="M2265 2777q0 -32 -16 -98l-906 -2527q-35 -97 -80 -141q-37 -36 -120 -36q-144 0 -201 160l-909 2536q-16 46 -33 131q0 74 42 127q45 57 118 57q145 0 209 -184l766 -2216h8l770 2224q50 143 192 143q160 0 160 -176z" />
    <glyph glyph-name="W" unicode="W" horiz-adv-x="3342" 
d="M3297 2687l-426 -2470q-22 -127 -96 -190q-80 -68 -182 -68q-90 0 -162 51q-68 47 -96 142l-623 2146h-8l-623 -2155q-53 -184 -266 -184q-99 0 -174.5 63t-95.5 179l-426 2502q0 242 168 242q169 0 192 -160l336 -2359l713 2376q43 143 168 143q150 0 192 -143
l705 -2376l344 2376q25 176 192 176q168 0 168 -217v-74z" />
    <glyph glyph-name="X" unicode="X" horiz-adv-x="2433" 
d="M2400 119q0 -64 -51.5 -104t-116.5 -40q-95 0 -159 91l-856 1216l-857 -1216q-64 -91 -167 -91q-59 0 -106.5 46t-53.5 106q14 73 49 123l926 1319l-766 1077q-56 98 -66 156q0 61 50 103q47 40 110 40q117 0 184 -98l697 -1016l696 1016q67 98 176 98q152 0 152 -152
q0 -77 -50 -147l-766 -1077l926 -1307q49 -69 49 -143z" />
    <glyph glyph-name="Y" unicode="Y" horiz-adv-x="1974" 
d="M2040 2793q0 -60 -33 -114l-799 -1303v-1208q0 -84 -49 -141q-52 -60 -135 -60q-78 0 -129 62q-47 59 -47 139v1208l-799 1295q-39 80 -49 131q0 61 50 103q47 40 110 40q116 0 176 -98l688 -1118l688 1110q66 106 168 106q160 0 160 -152z" />
    <glyph glyph-name="Z" unicode="Z" horiz-adv-x="2281" 
d="M2183 160q0 -160 -176 -160h-1712q-194 0 -209 160q9 79 57 151l1520 2298h-1327q-162 0 -176 152q15 159 184 159h1602q184 0 184 -143q0 -69 -66 -168l-1527 -2298h1478q168 0 168 -151z" />
    <glyph glyph-name="bracketleft" unicode="[" horiz-adv-x="913" 
d="M942 -184q0 -152 -172 -152h-266q-193 0 -193 193v2887q0 201 193 201h278q160 0 160 -160q0 -61 -45 -106t-106 -45h-144v-2659h135q160 0 160 -159z" />
    <glyph glyph-name="backslash" unicode="\" horiz-adv-x="1663" 
d="M1593 102q0 -143 -151 -143q-117 0 -168 115l-1163 2597q-26 75 -37 131q0 151 151 151q129 0 176 -106l1168 -2622q24 -54 24 -123z" />
    <glyph glyph-name="bracketright" unicode="]" horiz-adv-x="913" 
d="M672 -135q0 -201 -185 -201h-286q-160 0 -160 160q0 62 45 106.5t107 44.5h143v2659h-135q-151 0 -168 159q16 152 184 152h262q193 0 193 -192v-2888z" />
    <glyph glyph-name="asciicircum" unicode="^" horiz-adv-x="2458" 
d="M2232 1319q0 -129 -151 -143q-99 14 -160 127l-688 1282l-713 -1303q-51 -92 -151 -106q-130 0 -144 143q18 70 33 98l782 1401q75 135 185 135q120 0 200 -143l783 -1393q24 -43 24 -98z" />
    <glyph glyph-name="underscore" unicode="_" horiz-adv-x="2048" 
d="M2175 -410q0 -102 -127 -102h-2048q-127 0 -127 119q0 90 119 90h2056q127 0 127 -107z" />
    <glyph glyph-name="grave" unicode="`" horiz-adv-x="831" 
d="M1720 3297q0 -138 -176 -151q-32 6 -94 20l-520 209q-116 46 -131 152q0 69 53 118.5t123 49.5q49 0 65 -9l545 -229q135 -57 135 -160z" />
    <glyph glyph-name="a" unicode="a" horiz-adv-x="2281" 
d="M2040 160q0 -185 -168 -185t-168 168v160h-8q-234 -323 -570 -328q-268 -4 -501 137q-482 291 -482 969q0 718 500 1003q217 124 438 124q358 0 615 -295h8v119q0 75 47 125.5t121 50.5q168 0 168 -185v-1863zM1696 1090q0 505 -282 709q-135 97 -308 97h-8
q-285 0 -440 -232q-150 -225 -154 -574q-2 -205 65 -394q144 -409 512 -409q324 0 483 250q132 208 132 553z" />
    <glyph glyph-name="b" unicode="b" horiz-adv-x="2281" 
d="M2134 1081q0 -484 -263 -794q-128 -150 -306 -231q-187 -85 -398 -81q-397 7 -544 295h-9v-118q0 -177 -184 -177q-76 0 -124 54t-48 131v2818q0 188 172 188q184 0 184 -180v-1073h9q230 295 585 295q560 0 811 -560q116 -261 115 -567zM1778 1098q-3 217 -71 400
q-67 176 -195 281q-137 111 -312 117q-167 6 -318 -93q-305 -199 -313 -697q9 -7 9 -16q11 -474 265 -686q143 -121 365 -117q187 3 320 122q129 115 190 298q62 189 60 391z" />
    <glyph glyph-name="c" unicode="c" horiz-adv-x="1815" 
d="M1712 1929q0 -138 -160 -151l-210 71q-125 39 -216 39q-381 0 -542 -398q-77 -189 -80 -372q-5 -286 127 -546q127 -251 434 -285q41 0 61 -8q102 7 181 36q32 12 84 35l79 35q53 25 91 25q135 0 135 -152q0 -161 -218 -234q-147 -49 -352 -49q-600 0 -859 531
q-121 249 -124 534q-2 222 57 438q120 443 477 628q193 99 433 102q215 3 381 -60q158 -61 205 -141q16 -50 16 -78z" />
    <glyph glyph-name="d" unicode="d" horiz-adv-x="2281" 
d="M2023 160q0 -185 -184 -185q-74 0 -125 51.5t-51 125.5v118h-8q-58 -118 -189 -203q-138 -89 -356 -92q-282 -4 -505 141q-218 141 -337 393q-122 256 -125 572q-2 223 67 436q138 427 482 604q170 87 373 87q367 0 590 -295h8v1073q0 180 176 180q184 0 184 -188v-2818z
M1704 1090q3 231 -76 422q-160 384 -522 384q-389 0 -534 -420q-66 -190 -68 -378q-3 -327 143 -566t426 -245q220 -5 366 118q140 117 200 298q63 189 65 387z" />
    <glyph glyph-name="e" unicode="e" horiz-adv-x="2130" 
d="M2023 1126q0 -176 -200 -176h-1360q8 -429 332 -589q149 -74 331 -74q308 0 586 225q81 66 135 66q127 0 127 -152q0 -72 -53 -131q-113 -125 -340 -224q-221 -96 -475 -96q-514 0 -779 367q-226 313 -233 748q4 8 8 20q27 624 459 938q217 158 504 160q276 2 501 -152
q217 -148 338 -404q119 -252 119 -526zM1663 1225q-6 300 -160 483q-157 185 -422 188q-270 3 -438 -175t-180 -496h1200z" />
    <glyph glyph-name="f" unicode="f" horiz-adv-x="983" 
d="M1143 2998q0 -143 -185 -143h-110q-135 0 -135 -160v-512h229q162 0 176 -143q0 -168 -176 -168h-229v-1712q0 -185 -185 -185q-78 0 -127 53t-49 132v1712h-151q-182 0 -176 168q6 143 184 143h143v520q0 205 135 326q145 131 336 137q320 10 320 -168z" />
    <glyph glyph-name="g" unicode="g" horiz-adv-x="2281" 
d="M2023 152q0 -629 -444 -903q-223 -136 -522 -138q-360 -2 -680 193q-162 99 -176 225q24 128 143 152q121 -16 242 -99q234 -160 487 -160q302 0 460 251q134 211 134 532q0 14 -2 41t-2 41h-8q-174 -315 -582 -312q-271 2 -489 159q-208 149 -323 405q-120 263 -118 567
q3 315 125 571q119 251 337 391q224 144 505 140q400 -6 545 -303h8v118q0 177 176 177q184 0 184 -185v-1863zM1704 1065q0 475 -275 710q-147 125 -356 121q-186 -3 -318 -123q-129 -116 -190 -298q-63 -189 -61 -385q3 -222 71 -407q65 -179 195 -284q134 -109 311 -112
q274 -4 450 210q173 209 173 568z" />
    <glyph glyph-name="h" unicode="h" 
d="M1966 160q0 -185 -180 -185q-78 0 -127 53t-49 132v1192q0 234 -135 387t-365 157q-133 2 -253 -61q-259 -135 -259 -475v-1200q0 -185 -180 -185q-78 0 -127 53t-49 132v2818q0 188 176 188q180 0 180 -188l8 -1057q213 287 586 287q454 0 673 -404q101 -186 101 -403
v-1241z" />
    <glyph glyph-name="i" unicode="i" horiz-adv-x="831" 
d="M639 2720q0 -90 -65.5 -158t-155.5 -68q-91 0 -158 67.5t-67 158.5q0 92 66.5 158.5t158.5 66.5q91 0 156 -67t65 -158zM598 160q0 -185 -180 -185q-78 0 -127 53t-49 132v1855q0 193 176 193q180 0 180 -185v-1863z" />
    <glyph glyph-name="j" unicode="j" horiz-adv-x="831" 
d="M639 2720q0 -90 -65.5 -158t-155.5 -68q-91 0 -158 67.5t-67 158.5q0 92 66.5 158.5t158.5 66.5q91 0 156 -67t65 -158zM598 -696q0 -193 -180 -193q-176 0 -176 193v2711q0 193 176 193q180 0 180 -185v-2719z" />
    <glyph glyph-name="k" unicode="k" horiz-adv-x="1815" 
d="M1864 119q0 -144 -152 -144q-96 0 -184 91l-930 966v-872q0 -185 -180 -185q-78 0 -127 53t-49 132v2826q0 172 176 172q180 0 180 -180v-1544l844 708q69 58 143 58q152 0 152 -168q0 -75 -66 -127l-840 -664l963 -946q70 -69 70 -176z" />
    <glyph glyph-name="l" unicode="l" horiz-adv-x="831" 
d="M598 168q0 -193 -180 -193q-176 0 -176 193v2802q0 188 176 188q180 0 180 -180v-2810z" />
    <glyph glyph-name="m" unicode="m" horiz-adv-x="3408" 
d="M3183 152q0 -177 -185 -177q-74 0 -125 51.5t-51 125.5v1241q0 323 -223 446q-104 57 -232 57q-479 0 -479 -503v-1241q0 -168 -184 -168q-74 0 -125 47t-51 121v1224q0 266 -132 393q-136 130 -331 127q-125 -2 -235 -54q-232 -110 -232 -425v-1265q0 -77 -51 -127
t-129 -50q-75 0 -125.5 51t-50.5 126v1880q0 75 55 123q53 45 129 45q172 0 172 -185v-69h8q210 267 561 262q372 -6 586 -369q148 206 315 288q172 83 373 81q197 -2 372 -100q370 -208 370 -691v-1265z" />
    <glyph glyph-name="n" unicode="n" 
d="M1966 160q0 -176 -180 -176q-176 0 -176 176v1208q0 226 -138 372q-141 148 -366 148q-294 0 -436 -240q-72 -121 -72 -288v-1200q0 -193 -172 -193q-80 0 -132 56t-52 137v1855q0 193 176 193q180 0 180 -193v-86l8 -8q218 287 594 287q450 0 660 -372
q106 -188 106 -460v-1216z" />
    <glyph glyph-name="o" unicode="o" 
d="M2064 1090q0 -654 -450 -964q-218 -151 -508 -151q-592 0 -846 561q-117 256 -117 554q0 668 467 974q223 146 496 144q281 -2 505 -156q217 -149 337 -410q116 -255 116 -552zM1704 1090q2 213 -68 404q-149 402 -530 402q-384 0 -532 -393q-70 -184 -70 -413
q0 -322 134 -541q159 -262 460 -262q395 0 537 399q67 189 69 404z" />
    <glyph glyph-name="p" unicode="p" horiz-adv-x="2281" 
d="M2134 1106q0 -667 -442 -981q-212 -150 -484 -150q-365 0 -585 295h-9v-966q0 -217 -176 -217q-81 0 -132 65q-48 60 -48 143v2720q0 193 172 193q184 0 184 -185v-110h9q148 289 544 295q207 3 394 -80q361 -163 502 -577q70 -207 71 -445zM1778 1090q2 199 -61 388
q-61 182 -189 297q-133 118 -320 121q-222 4 -363.5 -114.5t-201.5 -298.5q-63 -191 -65 -385q-3 -366 164 -591q164 -222 425 -228q15 7 33 8q364 22 507 400q68 184 71 403z" />
    <glyph glyph-name="q" unicode="q" horiz-adv-x="2281" 
d="M2023 -705q0 -88 -52.5 -148t-139.5 -60q-168 0 -168 217v966h-16q-198 -295 -582 -295q-558 0 -812 561q-122 270 -118 570q4 313 132 572q122 249 340 390q222 143 499 140q219 -2 358 -92q135 -87 191 -203h8v110q0 78 49.5 131.5t126.5 53.5q184 0 184 -193v-2720z
M1696 1073q0 469 -270 701q-146 126 -361 122q-182 -3 -313 -121q-248 -224 -248 -685q0 -475 260 -685q137 -112 317 -118q169 -6 317 93q298 196 298 693z" />
    <glyph glyph-name="r" unicode="r" horiz-adv-x="1286" 
d="M1294 2023q0 -146 -248 -210q-120 -32 -157 -52q-291 -159 -291 -544v-1057q0 -185 -172 -185q-184 0 -184 193v1847q0 185 176 185q180 0 180 -185v-184h8q80 142 212 257.5t272 119.5q78 2 141 -52t63 -133z" />
    <glyph glyph-name="s" unicode="s" horiz-adv-x="1815" 
d="M1712 614q-2 -163 -94 -311q-90 -144 -270 -234q-185 -93 -443 -94q-425 -2 -712 242q-84 58 -99 176q0 67 45 113.5t111 46.5q77 0 234 -113q76 -56 110 -71q132 -76 303 -82q165 -6 311 72q135 72 135 227q0 145 -167 245q-106 63 -315 147q-235 93 -309 131
q-168 87 -263.5 203t-95.5 290q0 345 341 516q171 86 371 90q188 4 388 -67q194 -70 276 -150q86 -84 86 -168q0 -63 -48 -108.5t-112 -51.5q-71 18 -199 90q-176 99 -198 110q-68 32 -156 33q-190 3 -290 -77.5t-107 -196.5q33 -179 273 -287q100 -46 243 -94
q110 -38 196 -74q246 -103 349 -230q109 -135 106 -323z" />
    <glyph glyph-name="t" unicode="t" horiz-adv-x="983" 
d="M1040 2023q0 -151 -151 -151h-176v-1720q0 -177 -193 -177q-168 0 -168 185v1712h-159q-158 0 -177 151q16 160 177 160h159v488q0 168 176 168q185 0 185 -177v-479h159q168 0 168 -160z" />
    <glyph glyph-name="u" unicode="u" 
d="M1966 823q0 -503 -377 -729q-197 -119 -499 -119q-557 0 -757 424q-91 193 -91 424v1200q0 185 176 185q180 0 180 -185v-1192q0 -544 500 -544q512 0 512 544v1192q0 185 176 185q180 0 180 -185v-1200z" />
    <glyph glyph-name="v" unicode="v" horiz-adv-x="1745" 
d="M1729 2048q0 -38 -17 -86l-647 -1835q-25 -71 -74 -115q-42 -37 -119 -37q-133 0 -184 144l-647 1818q-18 50 -33 127q0 177 168 177q143 0 193 -152l503 -1536l512 1536q42 127 168 127q177 0 177 -168z" />
    <glyph glyph-name="w" unicode="w" horiz-adv-x="3031" 
d="M3031 2032q0 -39 -16 -86l-615 -1794q-61 -177 -200 -177q-145 0 -209 201l-463 1454h-8l-455 -1421q-46 -144 -91 -186q-51 -48 -134 -48q-142 0 -217 218l-607 1769q-3 27 -16 78q0 160 176 160q153 0 193 -127l487 -1545l479 1528q53 168 185 168q130 0 184 -168
l487 -1519h9l471 1511q50 160 192 160q168 0 168 -176z" />
    <glyph glyph-name="x" unicode="x" horiz-adv-x="1896" 
d="M1888 94q0 -143 -151 -143q-104 0 -193 123l-594 823l-598 -831q-65 -91 -176 -91q-145 0 -160 160q16 98 70 168l659 848l-577 754q-50 66 -66 151q0 65 47.5 108.5t112.5 43.5q98 0 156 -78l532 -713l529 705q65 86 151 86q156 0 156 -168q0 -62 -49 -127l-578 -762
l656 -856q73 -95 73 -201z" />
    <glyph glyph-name="y" unicode="y" horiz-adv-x="1745" 
d="M1753 2032q0 -40 -16 -86l-946 -2691q-28 -80 -75 -117q-55 -43 -122 -43q-133 0 -148 168q9 32 25 114l266 705l-651 1864q-4 28 -20 94q0 160 167 160q143 0 185 -127l495 -1495h9l495 1503q42 127 168 127q168 0 168 -176z" />
    <glyph glyph-name="z" unicode="z" horiz-adv-x="1815" 
d="M1745 152q0 -152 -176 -152h-1311q-184 0 -192 102q13 96 94 217l1040 1553h-921q-151 0 -168 151q14 160 176 160h1233q168 0 168 -127q0 -81 -70 -184l-1057 -1561h1008q176 0 176 -159z" />
    <glyph glyph-name="braceleft" unicode="{" horiz-adv-x="1057" 
d="M1049 -217q0 -119 -160 -119h-176q-184 0 -294 118q-108 115 -108 300v631q0 189 -31 274q-48 133 -194 172q-152 40 -152 144q0 110 152 147q148 36 196 173q29 83 29 273v631q0 185 109 301.5t293 116.5h176q160 0 160 -127q0 -111 -178 -121q-91 -6 -117 -18
q-107 -36 -107 -205v-602q0 -532 -377 -561v-17q377 -24 377 -557v-602q0 -173 107 -209q28 -14 119 -20.5t133.5 -27.5t42.5 -95z" />
    <glyph glyph-name="bar" unicode="|" horiz-adv-x="913" 
d="M623 135q0 -160 -168 -160t-168 168v2863q0 152 168 152t168 -160v-2863z" />
    <glyph glyph-name="braceright" unicode="}" horiz-adv-x="1057" 
d="M1049 1294q0 -97 -152 -135q-132 -33 -174 -130q-40 -90 -43 -316l-8 -631q-2 -182 -109 -300t-284 -118h-185q-160 0 -160 119q0 113 178 123q83 6 121 20q103 39 103 209v602q0 531 377 557v17q-377 32 -377 561v602q0 168 -103 205q-34 17 -124.5 23t-132.5 26t-42 94
q0 123 160 123h185q177 0 284 -117.5t109 -300.5l8 -631q3 -227 45 -317q44 -96 172 -129q152 -40 152 -156z" />
    <glyph glyph-name="asciitilde" unicode="~" horiz-adv-x="2458" 
d="M2200 1217q0 -250 -284 -404q-125 -68 -253 -68q-218 0 -479 136q-84 44 -240 114q-66 29 -137 29q-83 0 -188 -137q-108 -142 -209 -142q-148 0 -148 119q0 241 284 396q124 67 245 67q234 0 491 -135t373 -135q85 0 191.5 135t209.5 135q144 0 144 -110z" />
    <glyph glyph-name="Adieresis" unicode="&#xc4;" horiz-adv-x="2503" 
d="M2474 111q0 -144 -168 -144q-61 0 -112 35q-47 30 -72 100l-193 529h-1351l-193 -529q-46 -127 -184 -127q-155 0 -168 144q5 24 13 53l11 45l942 2519q40 107 104 161q68 56 146 56q85 0 152 -54q63 -52 102 -155l955 -2527q16 -66 16 -106zM1823 942l-566 1585h-8
l-561 -1585h1135zM1864 3350q0 -91 -66.5 -154t-158.5 -63q-93 0 -157 62.5t-64 154.5q0 96 62.5 160.5t158.5 64.5t160.5 -64.5t64.5 -160.5zM1098 3350q0 -91 -63 -154t-154 -63q-93 0 -159 62.5t-66 154.5q0 97 64 161t161 64q94 0 155.5 -65.5t61.5 -159.5z" />
    <glyph glyph-name="Aring" unicode="&#xc5;" horiz-adv-x="2503" 
d="M2474 111q0 -144 -168 -144q-61 0 -112 35q-47 30 -72 100l-193 529h-1351l-193 -529q-46 -127 -184 -127q-155 0 -168 144q5 24 13 53l11 45l942 2519q40 107 104 161q68 56 146 56q85 0 152 -54q63 -52 102 -155l955 -2527q16 -66 16 -106zM1823 942l-566 1585h-8
l-561 -1585h1135zM1630 3400q0 -160 -114.5 -272.5t-274.5 -112.5q-158 0 -271.5 113.5t-113.5 271.5q0 160 112.5 274.5t272.5 114.5q162 0 275.5 -113.5t113.5 -275.5zM1429 3400q0 77 -55.5 135t-132.5 58q-78 0 -131.5 -57.5t-53.5 -135.5q0 -79 53 -131.5t132 -52.5
t133.5 53t54.5 131z" />
    <glyph glyph-name="Ccedilla" unicode="&#xc7;" horiz-adv-x="2433" 
d="M2327 385q0 -86 -54 -135q-285 -257 -803 -275l-102 -151q29 4 86 16q117 -6 197 -67q84 -63 86 -158q4 -174 -124 -265q-124 -87 -331 -87q-299 0 -299 143q0 115 90 115q27 0 99 -20.5t110 -20.5q143 0 143 110q0 82 -145 84q-72 1 -99 9q-54 16 -63 67q8 31 41 98
l98 136q-562 63 -865 534q-265 410 -265 899q0 644 327 1070q347 454 963 458q320 2 590 -139q135 -70 217 -172q49 -61 49 -140q0 -137 -151 -151q-67 16 -90 33q-206 150 -273 184q-141 72 -317 74q-313 3 -523.5 -176t-305.5 -443q-98 -272 -101 -528q-2 -234 77 -514
q77 -273 273 -474q199 -205 522 -212q206 -4 355 56q145 57 334 169q56 33 118 33q136 0 136 -160z" />
    <glyph glyph-name="Eacute" unicode="&#xc9;" horiz-adv-x="1815" 
d="M1647 160q0 -160 -177 -160h-1052q-176 0 -176 193v2527q0 76 36 133q43 67 115 67h1102q152 0 152 -167q0 -168 -160 -168h-889v-963h811q160 0 160 -168t-168 -168h-803v-950h897q152 0 152 -176zM1352 3519q0 -95 -135 -152l-479 -201q-39 -16 -123 -20
q-67 -3 -116 40q-46 40 -52 103q15 117 159 176l484 197q28 16 94 16q65 0 116.5 -47.5t51.5 -111.5z" />
    <glyph glyph-name="Ntilde" unicode="&#xd1;" horiz-adv-x="2728" 
d="M2494 152q0 -185 -159 -185q-121 0 -201 115l-1536 2208v-2138q0 -177 -180 -177q-176 0 -176 185v2601q0 192 151 192q119 0 205 -123l1532 -2199h4v2122q0 81 48.5 136.5t127.5 55.5q184 0 184 -192v-2601zM1974 3440q0 -129 -139 -202q-106 -56 -254 -64q-17 8 -37 8
q-60 0 -192.5 37t-200.5 37q-52 0 -131 -31l-127 -51q-127 62 -127 160q0 92 41 139q104 119 319 119q85 0 225 -35q162 -40 222 -47q39 3 131 43q88 39 135 39q57 0 96 -47t39 -105z" />
    <glyph glyph-name="Odieresis" unicode="&#xd6;" horiz-adv-x="2802" 
d="M2687 1454q3 -391 -153 -737q-159 -350 -450 -544q-295 -198 -675 -198q-365 0 -660 191q-288 187 -453 519q-169 337 -169 769q0 389 143 718q156 358 453 567q293 206 686 206q593 0 940 -444q161 -207 247 -474q88 -279 91 -573zM2306 1462q3 566 -260 880
q-245 292 -637 292q-539 0 -778 -538q-119 -266 -119 -634q0 -653 363 -989q200 -186 534 -186q307 0 526 188q202 173 298 475q72 225 73 512zM2015 3350q0 -91 -66.5 -154t-158.5 -63q-93 0 -157 62.5t-64 154.5q0 96 62.5 160.5t158.5 64.5t160.5 -64.5t64.5 -160.5z
M1249 3350q0 -91 -63 -154t-154 -63q-93 0 -159 62.5t-66 154.5q0 97 64 161t161 64q94 0 155.5 -65.5t61.5 -159.5z" />
    <glyph glyph-name="Udieresis" unicode="&#xdc;" horiz-adv-x="2728" 
d="M2494 1126q0 -733 -490 -1010q-249 -141 -620 -141q-572 0 -863 314q-279 301 -279 829v1643q0 184 176 184q180 0 180 -184v-1753q0 -462 386 -638q188 -86 409 -83t398 99q351 189 351 622v1753q0 184 168 184q184 0 184 -184v-1635zM1974 3350q0 -91 -66.5 -154
t-158.5 -63q-93 0 -157 62.5t-64 154.5q0 96 62.5 160.5t158.5 64.5t160.5 -64.5t64.5 -160.5zM1208 3350q0 -91 -63 -154t-154 -63q-93 0 -159 62.5t-66 154.5q0 97 64 161t161 64q94 0 155.5 -65.5t61.5 -159.5z" />
    <glyph glyph-name="aacute" unicode="&#xe1;" horiz-adv-x="2281" 
d="M2040 160q0 -185 -168 -185t-168 168v160h-8q-234 -323 -570 -328q-268 -4 -501 137q-482 291 -482 969q0 718 500 1003q217 124 438 124q358 0 615 -295h8v119q0 75 47 125.5t121 50.5q168 0 168 -185v-1863zM1696 1090q0 505 -282 709q-135 97 -308 97h-8
q-285 0 -440 -232q-150 -225 -154 -574q-2 -205 65 -394q144 -409 512 -409q324 0 483 250q132 208 132 553zM1585 2872q0 -95 -135 -152l-479 -201q-39 -16 -123 -20q-67 -3 -116 40q-46 40 -52 103q15 117 159 176l484 197q28 16 94 16q65 0 116.5 -47.5t51.5 -111.5z" />
    <glyph glyph-name="agrave" unicode="&#xe0;" horiz-adv-x="2281" 
d="M2040 160q0 -185 -168 -185t-168 168v160h-8q-234 -323 -570 -328q-268 -4 -501 137q-482 291 -482 969q0 718 500 1003q217 124 438 124q358 0 615 -295h8v119q0 75 47 125.5t121 50.5q168 0 168 -185v-1863zM1696 1090q0 505 -282 709q-135 97 -308 97h-8
q-285 0 -440 -232q-150 -225 -154 -574q-2 -205 65 -394q144 -409 512 -409q324 0 483 250q132 208 132 553zM1593 2658q0 -138 -176 -151q-32 6 -94 20l-520 209q-116 46 -131 152q0 69 53 118.5t123 49.5q49 0 65 -9l545 -229q135 -57 135 -160z" />
    <glyph glyph-name="acircumflex" unicode="&#xe2;" horiz-adv-x="2281" 
d="M2040 160q0 -185 -168 -185t-168 168v160h-8q-234 -323 -570 -328q-268 -4 -501 137q-482 291 -482 969q0 718 500 1003q217 124 438 124q358 0 615 -295h8v119q0 75 47 125.5t121 50.5q168 0 168 -185v-1863zM1696 1090q0 505 -282 709q-135 97 -308 97h-8
q-285 0 -440 -232q-150 -225 -154 -574q-2 -205 65 -394q144 -409 512 -409q324 0 483 250q132 208 132 553zM1778 2626q0 -136 -152 -148q-57 14 -98 25l-389 159l-385 -151q-40 -16 -119 -33q-139 0 -139 148q0 118 98 159l545 230l532 -230q107 -34 107 -159z" />
    <glyph glyph-name="adieresis" unicode="&#xe4;" horiz-adv-x="2281" 
d="M2040 160q0 -185 -168 -185t-168 168v160h-8q-234 -323 -570 -328q-268 -4 -501 137q-482 291 -482 969q0 718 500 1003q217 124 438 124q358 0 615 -295h8v119q0 75 47 125.5t121 50.5q168 0 168 -185v-1863zM1696 1090q0 505 -282 709q-135 97 -308 97h-8
q-285 0 -440 -232q-150 -225 -154 -574q-2 -205 65 -394q144 -409 512 -409q324 0 483 250q132 208 132 553zM1745 2695q0 -91 -66.5 -154t-158.5 -63q-93 0 -157 62.5t-64 154.5q0 96 62.5 160.5t158.5 64.5t160.5 -64.5t64.5 -160.5zM979 2695q0 -91 -63 -154t-154 -63
q-93 0 -159 62.5t-66 154.5q0 97 64 161t161 64q94 0 155.5 -65.5t61.5 -159.5z" />
    <glyph glyph-name="atilde" unicode="&#xe3;" horiz-adv-x="2281" 
d="M2040 160q0 -185 -168 -185t-168 168v160h-8q-234 -323 -570 -328q-268 -4 -501 137q-482 291 -482 969q0 718 500 1003q217 124 438 124q358 0 615 -295h8v119q0 75 47 125.5t121 50.5q168 0 168 -185v-1863zM1696 1090q0 505 -282 709q-135 97 -308 97h-8
q-285 0 -440 -232q-150 -225 -154 -574q-2 -205 65 -394q144 -409 512 -409q324 0 483 250q132 208 132 553zM1753 2785q0 -129 -139 -202q-106 -56 -254 -64q-17 8 -37 8q-60 0 -192.5 37t-200.5 37q-52 0 -131 -31l-127 -51q-127 62 -127 160q0 92 41 139q104 119 319 119
q85 0 225 -35q162 -40 222 -47q39 3 131 43q88 39 135 39q57 0 96 -47t39 -105z" />
    <glyph glyph-name="aring" unicode="&#xe5;" horiz-adv-x="2281" 
d="M2040 160q0 -185 -168 -185t-168 168v160h-8q-234 -323 -570 -328q-268 -4 -501 137q-482 291 -482 969q0 718 500 1003q217 124 438 124q358 0 615 -295h8v119q0 75 47 125.5t121 50.5q168 0 168 -185v-1863zM1696 1090q0 505 -282 709q-135 97 -308 97h-8
q-285 0 -440 -232q-150 -225 -154 -574q-2 -205 65 -394q144 -409 512 -409q324 0 483 250q132 208 132 553zM1528 2785q0 -160 -114.5 -272.5t-274.5 -112.5q-158 0 -271.5 113.5t-113.5 271.5q0 160 112.5 274.5t272.5 114.5q162 0 275.5 -113.5t113.5 -275.5zM1327 2785
q0 77 -55.5 135t-132.5 58q-78 0 -131.5 -57.5t-53.5 -135.5q0 -79 53 -131.5t132 -52.5t133.5 53t54.5 131z" />
    <glyph glyph-name="ccedilla" unicode="&#xe7;" horiz-adv-x="1815" 
d="M1712 1929q0 -138 -160 -151l-210 71q-125 39 -216 39q-381 0 -542 -398q-77 -189 -80 -372q-5 -286 127 -546q127 -251 434 -285q41 0 61 -8q102 7 181 36q32 12 84 35l79 35q53 25 91 25q135 0 135 -152q0 -149 -201 -226q-148 -57 -328 -57l-102 -151q29 5 86 16
q257 -14 283 -225q0 -352 -459 -352q-303 0 -303 143q0 115 90 115q35 0 106 -20.5t107 -20.5q143 0 143 110q0 63 -64 78q-19 4 -116 4q-112 0 -123 78q8 31 41 98l94 144q-406 63 -616 399q-95 151 -140 320q-50 182 -51 329q-4 470 217 783q266 377 750 385
q195 3 404 -61q198 -62 198 -218z" />
    <glyph glyph-name="eacute" unicode="&#xe9;" horiz-adv-x="2130" 
d="M2023 1126q0 -176 -200 -176h-1360q8 -429 332 -589q149 -74 331 -74q308 0 586 225q81 66 135 66q127 0 127 -152q0 -72 -53 -131q-113 -125 -340 -224q-221 -96 -475 -96q-514 0 -779 367q-226 313 -233 748q4 8 8 20q27 624 459 938q217 158 504 160q276 2 501 -152
q217 -148 338 -404q119 -252 119 -526zM1663 1225q-6 300 -160 483q-157 185 -422 188q-270 3 -438 -175t-180 -496h1200zM1520 2880q0 -95 -135 -152l-479 -201q-39 -16 -123 -20q-67 -3 -116 40q-46 40 -52 103q15 117 159 176l484 197q28 16 94 16q65 0 116.5 -47.5
t51.5 -111.5z" />
    <glyph glyph-name="egrave" unicode="&#xe8;" horiz-adv-x="2130" 
d="M2023 1126q0 -176 -200 -176h-1360q8 -429 332 -589q149 -74 331 -74q308 0 586 225q81 66 135 66q127 0 127 -152q0 -72 -53 -131q-113 -125 -340 -224q-221 -96 -475 -96q-514 0 -779 367q-226 313 -233 748q4 8 8 20q27 624 459 938q217 158 504 160q276 2 501 -152
q217 -148 338 -404q119 -252 119 -526zM1663 1225q-6 300 -160 483q-157 185 -422 188q-270 3 -438 -175t-180 -496h1200zM1536 2642q0 -138 -176 -151q-32 6 -94 20l-520 209q-116 46 -131 152q0 69 53 118.5t123 49.5q49 0 65 -9l545 -229q135 -57 135 -160z" />
    <glyph glyph-name="ecircumflex" unicode="&#xea;" horiz-adv-x="2130" 
d="M2023 1126q0 -176 -200 -176h-1360q8 -429 332 -589q149 -74 331 -74q308 0 586 225q81 66 135 66q127 0 127 -152q0 -72 -53 -131q-113 -125 -340 -224q-221 -96 -475 -96q-514 0 -779 367q-226 313 -233 748q4 8 8 20q27 624 459 938q217 158 504 160q276 2 501 -152
q217 -148 338 -404q119 -252 119 -526zM1663 1225q-6 300 -160 483q-157 185 -422 188q-270 3 -438 -175t-180 -496h1200zM1696 2634q0 -136 -152 -148q-57 14 -98 25l-389 159l-385 -151q-40 -16 -119 -33q-139 0 -139 148q0 118 98 159l545 230l532 -230q107 -34 107 -159
z" />
    <glyph glyph-name="edieresis" unicode="&#xeb;" horiz-adv-x="2130" 
d="M2023 1126q0 -176 -200 -176h-1360q8 -429 332 -589q149 -74 331 -74q308 0 586 225q81 66 135 66q127 0 127 -152q0 -72 -53 -131q-113 -125 -340 -224q-221 -96 -475 -96q-514 0 -779 367q-226 313 -233 748q4 8 8 20q27 624 459 938q217 158 504 160q276 2 501 -152
q217 -148 338 -404q119 -252 119 -526zM1663 1225q-6 300 -160 483q-157 185 -422 188q-270 3 -438 -175t-180 -496h1200zM1671 2695q0 -91 -66.5 -154t-158.5 -63q-93 0 -157 62.5t-64 154.5q0 96 62.5 160.5t158.5 64.5t160.5 -64.5t64.5 -160.5zM905 2695q0 -91 -63 -154
t-154 -63q-93 0 -159 62.5t-66 154.5q0 97 64 161t161 64q94 0 155.5 -65.5t61.5 -159.5z" />
    <glyph glyph-name="iacute" unicode="&#xed;" horiz-adv-x="831" 
d="M598 160q0 -185 -180 -185q-78 0 -127 53t-49 132v1863q0 185 176 185q180 0 180 -193v-1855zM856 2872q0 -95 -135 -152l-479 -201q-39 -16 -123 -20q-67 -3 -116 40q-46 40 -52 103q15 117 159 176l484 197q28 16 94 16q65 0 116.5 -47.5t51.5 -111.5z" />
    <glyph glyph-name="igrave" unicode="&#xec;" horiz-adv-x="831" 
d="M598 160q0 -185 -180 -185q-78 0 -127 53t-49 132v1863q0 185 176 185q180 0 180 -193v-1855zM872 2650q0 -138 -176 -151q-32 6 -94 20l-520 209q-116 46 -131 152q0 69 53 118.5t123 49.5q49 0 65 -9l545 -229q135 -57 135 -160z" />
    <glyph glyph-name="icircumflex" unicode="&#xee;" horiz-adv-x="831" 
d="M598 160q0 -185 -180 -185q-78 0 -127 53t-49 132v1863q0 185 176 185q180 0 180 -193v-1855zM1065 2626q0 -136 -152 -148q-57 14 -98 25l-389 159l-385 -151q-40 -16 -119 -33q-139 0 -139 148q0 118 98 159l545 230l532 -230q107 -34 107 -159z" />
    <glyph glyph-name="idieresis" unicode="&#xef;" horiz-adv-x="831" 
d="M598 160q0 -185 -180 -185q-78 0 -127 53t-49 132v1863q0 185 176 185q180 0 180 -193v-1855zM1032 2695q0 -91 -66.5 -154t-158.5 -63q-93 0 -157 62.5t-64 154.5q0 96 62.5 160.5t158.5 64.5t160.5 -64.5t64.5 -160.5zM266 2695q0 -91 -63 -154t-154 -63
q-93 0 -159 62.5t-66 154.5q0 97 64 161t161 64q94 0 155.5 -65.5t61.5 -159.5z" />
    <glyph glyph-name="ntilde" unicode="&#xf1;" 
d="M1966 160q0 -176 -180 -176q-176 0 -176 176v1208q0 226 -138 372q-141 148 -366 148q-294 0 -436 -240q-72 -121 -72 -288v-1200q0 -193 -172 -193q-80 0 -132 56t-52 137v1855q0 193 176 193q180 0 180 -193v-86l8 -8q218 287 594 287q450 0 660 -372
q106 -188 106 -460v-1216zM1712 2785q0 -129 -139 -202q-106 -56 -254 -64q-17 8 -37 8q-60 0 -192.5 37t-200.5 37q-52 0 -131 -31l-127 -51q-127 62 -127 160q0 92 41 139q104 119 319 119q85 0 225 -35q162 -40 222 -47q39 3 131 43q88 39 135 39q57 0 96 -47t39 -105z
" />
    <glyph glyph-name="oacute" unicode="&#xf3;" 
d="M2064 1090q0 -654 -450 -964q-218 -151 -508 -151q-592 0 -846 561q-117 256 -117 554q0 668 467 974q223 146 496 144q281 -2 505 -156q217 -149 337 -410q116 -255 116 -552zM1704 1090q2 213 -68 404q-149 402 -530 402q-384 0 -532 -393q-70 -184 -70 -413
q0 -322 134 -541q159 -262 460 -262q395 0 537 399q67 189 69 404zM1561 2880q0 -95 -135 -152l-479 -201q-39 -16 -123 -20q-67 -3 -116 40q-46 40 -52 103q15 117 159 176l484 197q28 16 94 16q65 0 116.5 -47.5t51.5 -111.5z" />
    <glyph glyph-name="ograve" unicode="&#xf2;" 
d="M2064 1090q0 -654 -450 -964q-218 -151 -508 -151q-592 0 -846 561q-117 256 -117 554q0 668 467 974q223 146 496 144q281 -2 505 -156q217 -149 337 -410q116 -255 116 -552zM1704 1090q2 213 -68 404q-149 402 -530 402q-384 0 -532 -393q-70 -184 -70 -413
q0 -322 134 -541q159 -262 460 -262q395 0 537 399q67 189 69 404zM1577 2633q0 -138 -176 -151q-32 6 -94 20l-520 209q-116 46 -131 152q0 69 53 118.5t123 49.5q49 0 65 -9l545 -229q135 -57 135 -160z" />
    <glyph glyph-name="ocircumflex" unicode="&#xf4;" 
d="M2064 1090q0 -654 -450 -964q-218 -151 -508 -151q-592 0 -846 561q-117 256 -117 554q0 668 467 974q223 146 496 144q281 -2 505 -156q217 -149 337 -410q116 -255 116 -552zM1704 1090q2 213 -68 404q-149 402 -530 402q-384 0 -532 -393q-70 -184 -70 -413
q0 -322 134 -541q159 -262 460 -262q395 0 537 399q67 189 69 404zM1745 2634q0 -136 -152 -148q-57 14 -98 25l-389 159l-385 -151q-40 -16 -119 -33q-139 0 -139 148q0 118 98 159l545 230l532 -230q107 -34 107 -159z" />
    <glyph glyph-name="odieresis" unicode="&#xf6;" 
d="M2064 1090q0 -654 -450 -964q-218 -151 -508 -151q-592 0 -846 561q-117 256 -117 554q0 668 467 974q223 146 496 144q281 -2 505 -156q217 -149 337 -410q116 -255 116 -552zM1704 1090q2 213 -68 404q-149 402 -530 402q-384 0 -532 -393q-70 -184 -70 -413
q0 -322 134 -541q159 -262 460 -262q395 0 537 399q67 189 69 404zM1712 2703q0 -91 -66.5 -154t-158.5 -63q-93 0 -157 62.5t-64 154.5q0 96 62.5 160.5t158.5 64.5t160.5 -64.5t64.5 -160.5zM946 2703q0 -91 -63 -154t-154 -63q-93 0 -159 62.5t-66 154.5q0 97 64 161
t161 64q94 0 155.5 -65.5t61.5 -159.5z" />
    <glyph glyph-name="otilde" unicode="&#xf5;" 
d="M2064 1090q0 -654 -450 -964q-218 -151 -508 -151q-592 0 -846 561q-117 256 -117 554q0 668 467 974q223 146 496 144q281 -2 505 -156q217 -149 337 -410q116 -255 116 -552zM1704 1090q2 213 -68 404q-149 402 -530 402q-384 0 -532 -393q-70 -184 -70 -413
q0 -322 134 -541q159 -262 460 -262q395 0 537 399q67 189 69 404zM1696 2793q0 -129 -139 -202q-106 -56 -254 -64q-17 8 -37 8q-60 0 -192.5 37t-200.5 37q-52 0 -131 -31l-127 -51q-127 62 -127 160q0 92 41 139q104 119 319 119q85 0 225 -35q162 -40 222 -47
q39 3 131 43q88 39 135 39q57 0 96 -47t39 -105z" />
    <glyph glyph-name="uacute" unicode="&#xfa;" 
d="M1966 823q0 -503 -377 -729q-197 -119 -499 -119q-557 0 -757 424q-91 193 -91 424v1200q0 185 176 185q180 0 180 -185v-1192q0 -544 500 -544q512 0 512 544v1192q0 185 176 185q180 0 180 -185v-1200zM1528 2863q0 -95 -135 -152l-479 -201q-39 -16 -123 -20
q-67 -3 -116 40q-46 40 -52 103q15 117 159 176l484 197q28 16 94 16q65 0 116.5 -47.5t51.5 -111.5z" />
    <glyph glyph-name="ugrave" unicode="&#xf9;" 
d="M1966 823q0 -503 -377 -729q-197 -119 -499 -119q-557 0 -757 424q-91 193 -91 424v1200q0 185 176 185q180 0 180 -185v-1192q0 -544 500 -544q512 0 512 544v1192q0 185 176 185q180 0 180 -185v-1200zM1568 2633q0 -138 -176 -151q-32 6 -94 20l-520 209
q-116 46 -131 152q0 69 53 118.5t123 49.5q49 0 65 -9l545 -229q135 -57 135 -160z" />
    <glyph glyph-name="ucircumflex" unicode="&#xfb;" 
d="M1966 823q0 -503 -377 -729q-197 -119 -499 -119q-557 0 -757 424q-91 193 -91 424v1200q0 185 176 185q180 0 180 -185v-1192q0 -544 500 -544q512 0 512 544v1192q0 185 176 185q180 0 180 -185v-1200zM1753 2626q0 -136 -152 -148q-57 14 -98 25l-389 159l-385 -151
q-40 -16 -119 -33q-139 0 -139 148q0 118 98 159l545 230l532 -230q107 -34 107 -159z" />
    <glyph glyph-name="udieresis" unicode="&#xfc;" 
d="M1966 823q0 -503 -377 -729q-197 -119 -499 -119q-557 0 -757 424q-91 193 -91 424v1200q0 185 176 185q180 0 180 -185v-1192q0 -544 500 -544q512 0 512 544v1192q0 185 176 185q180 0 180 -185v-1200zM1720 2687q0 -91 -66.5 -154t-158.5 -63q-93 0 -157 62.5
t-64 154.5q0 96 62.5 160.5t158.5 64.5t160.5 -64.5t64.5 -160.5zM954 2687q0 -91 -63 -154t-154 -63q-93 0 -159 62.5t-66 154.5q0 97 64 161t161 64q94 0 155.5 -65.5t61.5 -159.5z" />
    <glyph glyph-name="dagger" unicode="&#x2020;" horiz-adv-x="2494" 
d="M2400 1761q0 -168 -168 -168h-807v-2314q0 -160 -168 -160q-167 0 -167 168v2306h-828q-141 0 -160 168q19 168 160 168h828v856q0 160 167 160q168 0 168 -160v-856h816q159 0 159 -168z" />
    <glyph glyph-name="cent" unicode="&#xa2;" horiz-adv-x="1815" 
d="M1712 1929q0 -138 -160 -151l-158 56q-177 62 -288 62v-1609q148 0 364 98q55 25 91 25q135 0 135 -152q0 -283 -590 -283v-225q0 -78 -98 -78q-78 0 -78 86v234q-526 108 -704 629q-89 260 -83 538q5 262 112 495q202 447 675 537v242q0 78 78 78q98 0 98 -86v-225
q606 0 606 -271zM930 319v1545q-211 -84 -315 -286q-108 -209 -111 -460q-3 -241 100 -481q100 -232 326 -318z" />
    <glyph glyph-name="sterling" unicode="&#xa3;" horiz-adv-x="2433" 
d="M2310 168q0 -168 -168 -168h-1696q-158 0 -176 143q15 112 99 193q246 239 324 427q52 125 52 277q0 82 -32 254h-426q-159 0 -176 160q14 176 176 176h327q-191 319 -204 586q20 441 480 639q221 96 437 90q221 -6 438 -119q178 -94 307 -236q151 -167 169 -341
q0 -103 -47 -144q-24 -19 -146 -65q-89 9 -176 184q-108 217 -225 297q-127 88 -361 88q-209 0 -360 -114q-155 -116 -152 -336q2 -107 45 -199q39 -86 172 -330h545q160 0 160 -168t-160 -168h-463q25 -101 25 -237q0 -366 -344 -721h1388q168 0 168 -168z" />
    <glyph glyph-name="section" unicode="&#xa7;" horiz-adv-x="2281" 
d="M2159 930q0 -273 -196 -497q-100 -114 -243 -200q262 -182 262 -475q0 -363 -381 -547q-199 -95 -458 -100q-213 -4 -427 76q-445 166 -507 469q-8 39 -8 61q0 183 168 197q131 -14 192 -139q93 -191 224 -274q126 -79 350 -79q185 0 317 70q166 88 166 258
q0 187 -201 299q-137 76 -432 202q-292 123 -433 203q-427 241 -450 656q18 480 512 696q-264 161 -270 475q-3 164 104 327q98 151 296 244q202 95 481 93q237 -2 427 -93q374 -182 404 -509q0 -206 -168 -213q-124 7 -184 160q-100 255 -309 315q-101 29 -244 29
q-169 0 -296 -86q-143 -97 -150 -258q13 -138 118 -226q128 -108 447 -260l487 -232q402 -214 402 -642zM1806 938q0 274 -336 430l-540 250q-446 -159 -459 -483q14 -255 385 -439l594 -295q356 249 356 537z" />
    <glyph glyph-name="bullet" unicode="&#x2022;" horiz-adv-x="2048" 
d="M1753 1454q0 -416 -365 -627q-168 -98 -364 -98q-417 0 -630 363q-99 167 -99 362q0 426 365 639q168 98 364 98q418 0 631 -366q98 -170 98 -371z" />
    <glyph glyph-name="paragraph" unicode="&#xb6;" horiz-adv-x="2458" 
d="M2134 -721q0 -160 -168 -160t-168 152v3375h-471v-3383q0 -152 -168 -152t-168 160v2138q-509 0 -755 348q-125 175 -125 426q0 457 477 647q226 90 510 90h848q188 0 188 -208v-3433z" />
    <glyph glyph-name="germandbls" unicode="&#xdf;" horiz-adv-x="2281" 
d="M2073 897q0 -361 -233 -638q-246 -292 -599 -284q-217 5 -217 185q22 132 160 135q312 7 409 195q95 185 95 440q0 246 -120 410q-132 180 -368 196q-192 13 -192 160q0 68 36 102q32 29 132 57q162 45 225 147q70 114 78 325q9 229 -119 381q-121 144 -320 147
q-188 3 -289 -109q-148 -163 -157 -448l4 -7v-1v-2147q0 -168 -180 -168q-176 0 -176 168v2208q0 460 347 693q180 120 435 122q211 2 400 -98.5t302 -276t113 -391.5q0 -443 -311 -671q269 -74 414 -317q131 -219 131 -515z" />
    <glyph glyph-name="registered" unicode="&#xae;" horiz-adv-x="3281" 
d="M3121 1454q0 -399 -197 -739t-540.5 -540t-745.5 -200q-400 0 -742.5 196.5t-544.5 542.5q-199 339 -199 740q0 620 434 1055.5t1052 435.5q616 0 1051 -437q432 -434 432 -1054zM2793 1454q0 315 -155 587t-426 434q-266 159 -574 159t-575 -161
q-261 -157 -418.5 -428.5t-157.5 -590.5q0 -312 155 -581.5t425 -428.5q264 -157 571 -157q309 0 576 157q264 155 421.5 424t157.5 586zM2281 1798q0 -412 -417 -471l368 -565q33 -51 33 -98q0 -57 -151 -70q-105 7 -160 94l-393 623h-267v-590q0 -120 -135 -127
q-127 7 -127 127v1487q0 82 86 82h545q423 0 550 -202q68 -108 68 -290zM2015 1815q0 225 -385 225h-336v-479h316q266 0 351 87q54 55 54 167z" />
    <glyph glyph-name="copyright" unicode="&#xa9;" horiz-adv-x="3281" 
d="M3129 1454q0 -398 -200 -740q-198 -338 -545 -539q-343 -200 -746 -200q-398 0 -740.5 197.5t-544.5 541.5q-201 340 -201 740t199 743.5t546 546.5q342 201 741 201q400 0 743 -199t547 -546q201 -344 201 -746zM2785 1454q0 316 -151.5 588t-420.5 434
q-264 158 -575 158q-310 0 -577 -160q-262 -157 -418 -428.5t-156 -591.5q0 -314 153.5 -584.5t423.5 -431.5q265 -159 574 -159q310 0 576 158q262 156 416.5 427t154.5 590zM2384 1098q0 -115 -123 -254q-101 -115 -221 -185q-168 -98 -393 -98q-385 0 -631 262
q-242 257 -242 639q0 548 412 795q198 119 461 119q340 0 555 -200q182 -171 182 -321q0 -118 -135 -118q-86 0 -233 203q-119 165 -369 165q-345 0 -475 -309q-62 -146 -62 -334q0 -366 257 -545q122 -86 280 -86q166 0 262 60q78 50 184 197q87 120 156 120
q135 0 135 -110z" />
    <glyph glyph-name="trademark" unicode="&#x2122;" horiz-adv-x="4055" 
d="M3826 1384q0 -152 -156 -167q-160 17 -160 159v1184h-8l-455 -1217q-42 -113 -168 -126q-118 15 -159 126l-455 1217h-8v-1176q0 -153 -160 -167q-151 14 -151 167v1287q0 274 245 274q219 0 287 -176l410 -1057l401 1065q66 175 287 168q250 -8 250 -266v-1295z
M1618 2785q0 -139 -115 -139h-405v-1270q0 -142 -168 -159q-168 16 -168 159v1270h-410q-101 0 -119 131q16 143 119 143h1143q123 0 123 -135z" />
    <glyph glyph-name="acute" unicode="&#xb4;" horiz-adv-x="831" 
d="M1704 3527q0 -95 -135 -152l-479 -201q-39 -16 -123 -20q-67 -3 -116 40q-46 40 -52 103q15 117 159 176l484 197q28 16 94 16q65 0 116.5 -47.5t51.5 -111.5z" />
    <glyph glyph-name="dieresis" unicode="&#xa8;" horiz-adv-x="831" 
d="M1024 2695q0 -91 -66.5 -154t-158.5 -63q-93 0 -157 62.5t-64 154.5q0 96 62.5 160.5t158.5 64.5t160.5 -64.5t64.5 -160.5zM258 2695q0 -91 -63 -154t-154 -63q-93 0 -159 62.5t-66 154.5q0 97 64 161t161 64q94 0 155.5 -65.5t61.5 -159.5z" />
    <glyph glyph-name="AE" unicode="&#xc6;" horiz-adv-x="3031" 
d="M2945 160q0 -72 -57 -118q-53 -42 -127 -42h-1041q-192 0 -192 201v430h-942l-299 -565q-48 -91 -160 -91q-160 0 -160 136q0 46 33 131l1294 2535q48 93 102 120q47 23 132 23h1200q168 0 168 -167q0 -168 -176 -168h-832v-955h807q160 0 160 -180q0 -164 -168 -164
h-799v-950h881q176 0 176 -176zM1528 942v1561h-8l-783 -1561h791z" />
    <glyph glyph-name="Oslash" unicode="&#xd8;" horiz-adv-x="2802" 
d="M2728 2855q0 -29 -33 -78l-295 -344q279 -402 287 -979q5 -387 -153.5 -737t-449.5 -544q-295 -198 -675 -198q-482 0 -831 328l-250 -295q-63 -74 -144 -74q-96 0 -110 115q14 68 45 103l291 335q-283 417 -283 967q0 389 143 718q156 358 453 567q293 206 686 206
q489 0 823 -328l254 303q49 58 115 58q127 0 127 -123zM2015 2367q-241 267 -606 267q-539 0 -778 -538q-119 -266 -119 -634q0 -390 135 -688zM2306 1462q0 393 -147 680l-1368 -1589q231 -266 618 -266t635 296q262 313 262 879z" />
    <glyph glyph-name="plusminus" unicode="&#xb1;" horiz-adv-x="2458" 
d="M2265 1274q0 -164 -160 -164h-704v-455q0 -161 -168 -176q-168 14 -168 176v455h-696q-178 0 -193 172q15 168 193 168h696v446q0 177 160 177q176 0 176 -177v-446h713q151 0 151 -176zM2281 160q0 -160 -167 -160h-1745q-166 0 -185 168q18 168 185 168h1745
q167 0 167 -176z" />
    <glyph glyph-name="yen" unicode="&#xa5;" 
d="M2159 2802q0 -40 -37 -131l-672 -1041h397q160 0 160 -135t-160 -135h-565v-287h565q160 0 160 -135q0 -139 -168 -139h-557v-639q0 -185 -184 -185q-78 0 -127 53t-49 132v639h-578q-142 0 -160 131q16 143 160 143h578v287h-570q-162 0 -176 135q15 135 168 135h410
l-680 1041q-33 50 -49 131q0 61 45 102t106 41q107 0 184 -115l738 -1101l725 1089q85 127 200 127q136 0 136 -143z" />
    <glyph glyph-name="mu" unicode="&#xb5;" 
d="M1966 176q0 -201 -180 -201q-147 0 -168 119q-226 -119 -512 -119q-355 0 -508 193v-873q0 -176 -180 -176q-176 0 -176 168v2736q0 185 176 185q180 0 180 -185v-1159q0 -390 202 -507q125 -72 351 -70q289 3 375 170q84 164 84 399v1167q0 185 176 185q180 0 180 -185
v-1847z" />
    <glyph glyph-name="mu" unicode="&#x3bc;" 
d="M1966 176q0 -201 -180 -201q-147 0 -168 119q-226 -119 -512 -119q-355 0 -508 193v-873q0 -176 -180 -176q-176 0 -176 168v2736q0 185 176 185q180 0 180 -185v-1159q0 -390 202 -507q125 -72 351 -70q289 3 375 170q84 164 84 399v1167q0 185 176 185q180 0 180 -185
v-1847z" />
    <glyph glyph-name="ordfeminine" unicode="&#xaa;" horiz-adv-x="1479" 
d="M1360 1712q0 -110 -135 -110t-135 102v74h-9q-124 -182 -360 -176q-264 6 -435 201q-170 191 -167 478q2 171 84 330q173 334 534 334q228 0 344 -168l9 -8v70q0 106 135 106t135 -106v-1127zM1098 2273q0 242 -169 365q-79 57 -175 57q-158 0 -252 -136
q-84 -121 -84 -286q0 -167 83 -288q94 -138 253 -138q160 0 257 137q87 122 87 289z" />
    <glyph glyph-name="ordmasculine" unicode="&#xba;" horiz-adv-x="1425" 
d="M1343 2273q0 -396 -293 -581q-145 -92 -329 -90q-385 4 -550 337q-77 153 -77 334q0 399 294 583q142 89 333 89q382 0 546 -333q76 -154 76 -339zM1049 2273q0 247 -162 367q-75 55 -166 55q-199 0 -292 -208q-44 -97 -44 -214q0 -163 85 -286q95 -140 251 -140
q152 0 246 142q82 124 82 284z" />
    <glyph glyph-name="ae" unicode="&#xe6;" horiz-adv-x="3641" 
d="M3535 1151q0 -201 -201 -201h-1327q14 -395 326 -573q143 -82 313 -82q288 0 643 266q53 17 70 17q131 0 131 -152q0 -45 -17 -90q-102 -148 -322 -250q-232 -109 -439 -111q-458 -5 -664 267h-8v-82q0 -185 -168 -185q-73 0 -120.5 51.5t-47.5 125.5v151h-8
q-216 -319 -606 -319q-580 0 -829 555q-116 258 -118 542q-3 349 141 611q125 229 329 368q218 148 468 148q361 0 615 -295h8v119q0 168 160 168q176 0 176 -177v-86h8q75 95 238 183q170 92 348 88q253 -5 465 -163q204 -153 321 -396q115 -238 115 -498zM3174 1225
q-5 277 -143 463q-155 208 -422 208q-283 0 -434 -200q-133 -175 -143 -471h1142zM1704 1073q0 373 -163 598q-167 229 -451 225q-221 -3 -356 -142q-230 -237 -230 -656q0 -494 276 -706q136 -105 326 -105q389 0 534 406q64 178 64 380z" />
    <glyph glyph-name="oslash" unicode="&#xf8;" 
d="M2114 2159q0 -45 -41 -95l-218 -266q211 -299 209 -717q-2 -452 -259 -774q-264 -332 -699 -332q-338 0 -586 209l-184 -217q-41 -61 -119 -61q-111 0 -135 110q7 54 61 119l209 250q-209 267 -209 688q0 668 447 981q220 154 520 154q368 0 578 -217l176 217
q59 73 118 73q48 0 90 -37.5t42 -84.5zM1479 1745q-153 151 -373 151q-355 0 -511 -346q-80 -178 -91 -432q-1 -32 -8 -53q16 -251 90 -401zM1704 1081q4 229 -86 430l-889 -1073q151 -151 381 -151q261 0 422 210q165 216 172 584z" />
    <glyph glyph-name="questiondown" unicode="&#xbf;" horiz-adv-x="1815" 
d="M1151 1991q0 -85 -61.5 -145t-147.5 -60q-87 0 -146 59t-59 146q0 92 57 150.5t148 58.5q90 0 149.5 -59.5t59.5 -149.5zM1737 -143q0 -363 -446 -542q-193 -77 -369 -77q-451 0 -707 326q-136 174 -141 395q-8 329 178 550q177 211 510 282v426q0 176 168 176
q188 0 188 -176v-537q0 -151 -164 -188q-58 -13 -192 -46q-114 -31 -210 -133q-92 -99 -97 -280q8 -33 8 -99q64 -360 487 -360q164 0 281 81q121 85 162 218q51 168 168 168q176 0 176 -184z" />
    <glyph glyph-name="exclamdown" unicode="&#xa1;" horiz-adv-x="1135" 
d="M815 1991q0 -85 -61.5 -145t-147.5 -60q-87 0 -150 59.5t-63 145.5q0 91 60.5 150t152.5 59q90 0 149.5 -59.5t59.5 -149.5zM782 -586q0 -176 -184 -176q-172 0 -172 176v1803q0 74 49 125t123 51q184 0 184 -185v-1794z" />
    <glyph glyph-name="logicalnot" unicode="&#xac;" horiz-adv-x="2458" 
d="M2265 598q0 -143 -168 -160q-168 15 -168 168v688h-1577q-149 0 -168 168q19 168 160 168h1753q168 0 168 -176v-856z" />
    <glyph glyph-name="florin" unicode="&#x192;" 
d="M1913 2986q0 -147 -168 -147q-255 0 -340 -112q-52 -68 -86 -216l-127 -545h258q143 0 143 -127t-143 -127h-291l-319 -1712q-57 -304 -153 -445q-185 -268 -560 -268q-193 0 -193 160q0 135 160 135q183 0 296 90q102 82 163 394l319 1646h-258q-134 0 -151 127
q16 127 151 127h291l127 643q48 243 161 353q173 167 552 167q168 0 168 -143z" />
    <glyph glyph-name="guillemotleft" unicode="&#xab;" horiz-adv-x="1593" 
d="M1511 393q0 -109 -159 -135q-81 7 -135 102l-418 738l409 733q59 106 152 106q55 0 103 -42.5t48 -96.5q0 -53 -49 -135l-336 -565l353 -586q32 -53 32 -119zM864 401q0 -117 -168 -143q-89 7 -127 102l-417 738l409 733q59 106 144 106q54 0 102.5 -45t48.5 -98
q0 -62 -41 -131l-336 -565l352 -586q33 -80 33 -111z" />
    <glyph glyph-name="guillemotright" unicode="&#xbb;" horiz-adv-x="1593" 
d="M1511 1098l-405 -738q-52 -95 -148 -102q-141 20 -159 135q17 79 41 119l352 586l-344 565q-29 48 -49 131q6 57 50.5 100t100.5 43q97 0 156 -106zM864 1098l-418 -738q-37 -95 -135 -102q-141 20 -159 135q17 79 41 119l352 586l-344 565q-29 48 -49 131q6 57 50.5 100
t100.5 43q93 0 152 -106z" />
    <glyph glyph-name="ellipsis" unicode="&#x2026;" horiz-adv-x="4096" 
d="M3625 184q0 -84 -62.5 -146.5t-146.5 -62.5q-83 0 -146 63t-63 146q0 85 62 147t147 62q86 0 147.5 -61.5t61.5 -147.5zM2257 184q0 -87 -61 -148t-148 -61q-83 0 -146 63t-63 146q0 85 62 147t147 62q88 0 148.5 -60.5t60.5 -148.5zM897 184q0 -84 -62.5 -146.5
t-146.5 -62.5q-86 0 -151.5 62t-65.5 147q0 87 64.5 148t152.5 61q86 0 147.5 -61.5t61.5 -147.5z" />
    <glyph glyph-name="nonbreakingspace" unicode="&#xa0;" horiz-adv-x="0" 
 />
    <glyph glyph-name="Agrave" unicode="&#xc0;" horiz-adv-x="2503" 
d="M2474 111q0 -144 -168 -144q-61 0 -112 35q-47 30 -72 100l-193 529h-1351l-193 -529q-46 -127 -184 -127q-155 0 -168 144q5 24 13 53l11 45l942 2519q40 107 104 161q68 56 146 56q85 0 152 -54q63 -52 102 -155l955 -2527q16 -66 16 -106zM1823 942l-566 1585h-8
l-561 -1585h1135zM1704 3297q0 -138 -176 -151q-32 6 -94 20l-520 209q-116 46 -131 152q0 69 53 118.5t123 49.5q49 0 65 -9l545 -229q135 -57 135 -160z" />
    <glyph glyph-name="Atilde" unicode="&#xc3;" horiz-adv-x="2503" 
d="M2474 111q0 -144 -168 -144q-61 0 -112 35q-47 30 -72 100l-193 529h-1351l-193 -529q-46 -127 -184 -127q-155 0 -168 144q5 24 13 53l11 45l942 2519q40 107 104 161q68 56 146 56q85 0 152 -54q63 -52 102 -155l955 -2527q16 -66 16 -106zM1823 942l-566 1585h-8
l-561 -1585h1135zM1855 3440q0 -129 -139 -202q-106 -56 -254 -64q-17 8 -37 8q-60 0 -192.5 37t-200.5 37q-52 0 -131 -31l-127 -51q-127 62 -127 160q0 92 41 139q104 119 319 119q85 0 225 -35q162 -40 222 -47q39 3 131 43q88 39 135 39q57 0 96 -47t39 -105z" />
    <glyph glyph-name="Otilde" unicode="&#xd5;" horiz-adv-x="2802" 
d="M2687 1454q3 -391 -153 -737q-159 -350 -450 -544q-295 -198 -675 -198q-365 0 -660 191q-288 187 -453 519q-169 337 -169 769q0 389 143 718q156 358 453 567q293 206 686 206q593 0 940 -444q161 -207 247 -474q88 -279 91 -573zM2306 1462q3 566 -260 880
q-245 292 -637 292q-539 0 -778 -538q-119 -266 -119 -634q0 -653 363 -989q200 -186 534 -186q307 0 526 188q202 173 298 475q72 225 73 512zM2007 3440q0 -129 -139 -202q-106 -56 -254 -64q-17 8 -37 8q-60 0 -192.5 37t-200.5 37q-52 0 -131 -31l-127 -51
q-127 62 -127 160q0 92 41 139q104 119 319 119q85 0 225 -35q162 -40 222 -47q39 3 131 43q88 39 135 39q57 0 96 -47t39 -105z" />
    <glyph glyph-name="OE" unicode="&#x152;" horiz-adv-x="3793" 
d="M3670 160q0 -160 -172 -160h-1032q-193 0 -193 201v225h-8q-195 -277 -523 -393q-162 -58 -333 -58q-592 0 -946 452q-336 427 -336 1027q0 606 337 1037q355 454 945 454q484 0 864 -410v185q0 200 193 200h1016q159 0 159 -167q0 -168 -184 -168h-823v-963h807
q159 0 159 -168t-176 -168h-790v-950h876q160 0 160 -176zM2298 1470q0 708 -402 1013q-200 151 -487 151q-568 0 -793 -580q-104 -268 -104 -600q0 -709 407 -1014q207 -155 498 -153q288 2 490 161q391 307 391 1022z" />
    <glyph glyph-name="oe" unicode="&#x153;" horiz-adv-x="3719" 
d="M3609 1151q0 -201 -201 -201h-1352q0 -365 266 -545q124 -85 279 -102q86 0 127 -8q315 11 602 242q51 41 102 41q56 0 93 -49q34 -45 34 -103q0 -32 -16 -82q-130 -208 -494 -315q-179 -53 -337 -54q-259 -2 -487 109q-224 109 -345 317q-185 -252 -459 -360
q-183 -72 -397 -66q-209 6 -422 148q-459 305 -459 958q0 717 500 1001q225 128 467 126q284 -3 476 -141q188 -136 294 -289q105 178 308 304q207 129 483 126q198 -2 378 -95q349 -179 492 -574q68 -188 68 -388zM3248 1225q-8 427 -294 591q-138 78 -300 80
q-245 3 -421.5 -177.5t-176.5 -493.5h1192zM1696 1081q-3 242 -75 431q-71 183 -206 284q-140 103 -325 100q-222 -4 -356 -142q-230 -237 -230 -656q0 -492 273 -705q135 -106 321 -106q397 0 536 410q64 188 62 384z" />
    <glyph glyph-name="endash" unicode="&#x2013;" horiz-adv-x="4096" 
d="M4256 1098q0 -156 -152 -156h-4104q-152 0 -152 156q0 159 152 159h4104q152 0 152 -159z" />
    <glyph glyph-name="emdash" unicode="&#x2014;" horiz-adv-x="2048" 
d="M2048 1098q0 -156 -168 -156h-1712q-168 0 -168 156q0 159 176 159h1704q168 0 168 -159z" />
    <glyph glyph-name="quotedblleft" unicode="&#x201c;" horiz-adv-x="1286" 
d="M1286 2777q0 -68 -20 -106l-267 -512q-59 -114 -184 -127q-137 0 -151 159q17 89 32 119l246 508q61 127 176 127q168 0 168 -168zM705 2777q0 -56 -25 -106l-254 -512q-56 -113 -193 -127q-144 0 -151 159q7 75 29 119l249 508q62 127 185 127q160 0 160 -168z" />
    <glyph glyph-name="quotedblright" unicode="&#x201d;" horiz-adv-x="1286" 
d="M1286 2777q0 -68 -20 -106l-267 -512q-59 -114 -184 -127q-137 0 -151 159q17 89 32 119l246 508q61 127 176 127q168 0 168 -168zM705 2777q0 -56 -25 -106l-254 -512q-56 -113 -193 -127q-144 0 -151 159q7 75 29 119l249 508q62 127 185 127q160 0 160 -168z" />
    <glyph glyph-name="quoteleft" unicode="&#x2018;" horiz-adv-x="762" 
d="M729 2785q0 -61 -24 -123l-267 -512q-58 -112 -180 -127q-139 0 -156 168q18 98 33 127l266 512q60 115 168 115q160 0 160 -160z" />
    <glyph glyph-name="quoteright" unicode="&#x2019;" horiz-adv-x="762" 
d="M737 2785q0 -70 -32 -131l-259 -495q-68 -130 -167 -144q-158 28 -185 176q13 63 41 119l250 500q63 127 176 127q176 0 176 -152z" />
    <glyph glyph-name="ydieresis" unicode="&#xff;" horiz-adv-x="1745" 
d="M1753 2032q0 -40 -16 -86l-946 -2691q-28 -80 -75 -117q-55 -43 -122 -43q-133 0 -148 168q9 32 25 114l266 705l-651 1864q-4 28 -20 94q0 160 167 160q143 0 185 -127l495 -1495h9l495 1503q42 127 168 127q168 0 168 -176zM1503 2695q0 -91 -66.5 -154t-158.5 -63
q-93 0 -157 62.5t-64 154.5q0 96 62.5 160.5t158.5 64.5t160.5 -64.5t64.5 -160.5zM737 2695q0 -91 -63 -154t-154 -63q-93 0 -159 62.5t-66 154.5q0 97 64 161t161 64q94 0 155.5 -65.5t61.5 -159.5z" />
    <glyph glyph-name="currency" unicode="&#xa4;" 
d="M2138 490q27 -37 27 -93q0 -81 -49 -133q-136 -144 -326 -211q-180 -64 -389 -64q-390 0 -647 315q-222 272 -285 681h-229q-160 0 -160 137t160 137h199q-7 88 -7 172q0 120 7 228h-200q-160 0 -160 137t160 137h227q52 404 288 693q271 333 666 333q466 0 671 -300
q40 -59 40 -121q0 -60 -40 -103t-95 -43q-50 0 -89 35q-151 134 -222 169q-104 52 -280 52q-234 0 -387 -220q-136 -195 -170 -495h785q160 0 160 -137t-160 -137h-813q-9 -115 -9 -228q0 -83 7 -172h616q160 0 160 -137t-160 -137h-583q42 -295 174 -476q152 -208 388 -208
q146 0 286 58q65 27 111 61q78 58 111 79q61 38 120 38q62 0 97 -47z" />
    <glyph glyph-name="guilsinglleft" unicode="&#x2039;" horiz-adv-x="983" 
d="M881 393q0 -108 -160 -135q-89 7 -127 102l-418 738l410 733q59 106 143 106q54 0 103 -44.5t49 -98.5q0 -47 -41 -131l-344 -565l352 -586q33 -55 33 -119z" />
    <glyph glyph-name="guilsinglright" unicode="&#x203a;" horiz-adv-x="983" 
d="M889 1098l-410 -729q-59 -105 -143 -111q-139 21 -160 135q8 45 49 144l336 561l-352 581q-38 97 -41 107q13 143 160 143q92 0 143 -90z" />
    <glyph glyph-name="daggerdbl" unicode="&#x2021;" horiz-adv-x="2494" 
d="M2400 209q0 -160 -159 -160h-816v-778q0 -160 -168 -160q-167 0 -167 160v778h-828q-141 0 -160 160q19 176 160 176h828v1286h-828q-141 0 -160 168q19 168 160 168h828v778q0 160 167 160q168 0 168 -160v-778h816q159 0 159 -168t-168 -168h-807v-1286h807
q168 0 168 -176z" />
    <glyph glyph-name="periodcentered" unicode="&#xb7;" horiz-adv-x="983" 
d="M737 1241q0 -91 -66.5 -154t-158.5 -63q-91 0 -158 63.5t-67 153.5q0 93 66 157t159 64q94 0 159.5 -63.5t65.5 -157.5z" />
    <glyph glyph-name="periodcentered" unicode="&#x2219;" horiz-adv-x="983" 
d="M737 1241q0 -91 -66.5 -154t-158.5 -63q-91 0 -158 63.5t-67 153.5q0 93 66 157t159 64q94 0 159.5 -63.5t65.5 -157.5z" />
    <glyph glyph-name="quotedblbase" unicode="&#x201e;" horiz-adv-x="1286" 
d="M1286 225q0 -68 -20 -106l-267 -512q-62 -119 -184 -119q-138 0 -151 160q22 89 32 110l246 504q64 131 176 131q168 0 168 -168zM705 225q0 -56 -25 -106l-254 -512q-59 -119 -193 -119q-144 0 -151 160q9 69 29 110l249 504q65 131 185 131q160 0 160 -168z" />
    <glyph glyph-name="perthousand" unicode="&#x2030;" horiz-adv-x="4481" 
d="M4297 647q-7 -310 -186 -493q-175 -179 -441 -179q-376 0 -544 332q-79 155 -79 340q0 427 280 617q142 96 351 96q363 0 536 -335q88 -172 83 -378zM1434 2232q-2 -205 -87 -362q-169 -309 -540 -309q-377 0 -544 327q-79 153 -79 344q0 424 283 616q143 97 348 97
q291 0 463 -218q159 -201 156 -495zM2241 2863q-2 -18 -17 -78l-1134 -2744q-41 -98 -152 -98t-139 114q16 57 32 95l1131 2711q48 115 135 115q144 0 144 -115zM2855 647q-2 -207 -86 -362q-169 -310 -537 -310q-373 0 -543 332q-79 154 -79 340q0 426 281 617
q142 96 350 96q291 0 461 -218q156 -200 153 -495zM4022 655q4 219 -96 357q-98 134 -256 131q-175 -3 -261.5 -136.5t-86.5 -351.5q0 -175 79 -304q93 -152 257 -158q8 8 12 8q343 12 352 454zM1159 2241q4 215 -94 350q-94 129 -258 129q-171 0 -258 -132
q-91 -136 -94 -347q-3 -192 99 -329q104 -141 253 -134q343 16 352 463zM2585 655q4 212 -91 349q-91 131 -253 131h-9q-172 0 -259 -130q-90 -134 -93 -350q-3 -186 97 -322t255 -132q344 8 353 454z" />
    <glyph glyph-name="Acircumflex" unicode="&#xc2;" horiz-adv-x="2503" 
d="M2474 111q0 -144 -168 -144q-61 0 -112 35q-47 30 -72 100l-193 529h-1351l-193 -529q-46 -127 -184 -127q-155 0 -168 144q5 24 13 53l11 45l942 2519q40 107 104 161q68 56 146 56q85 0 152 -54q63 -52 102 -155l955 -2527q16 -66 16 -106zM1823 942l-566 1585h-8
l-561 -1585h1135zM1880 3281q0 -136 -152 -148q-57 14 -98 25l-389 159l-385 -151q-40 -16 -119 -33q-139 0 -139 148q0 118 98 159l545 230l532 -230q107 -34 107 -159z" />
    <glyph glyph-name="Ecircumflex" unicode="&#xca;" horiz-adv-x="1815" 
d="M1647 160q0 -160 -177 -160h-1052q-176 0 -176 193v2527q0 76 36 133q43 67 115 67h1102q152 0 152 -167q0 -168 -160 -168h-889v-963h811q160 0 160 -168t-168 -168h-803v-950h897q152 0 152 -176zM1561 3281q0 -136 -152 -148q-57 14 -98 25l-389 159l-385 -151
q-40 -16 -119 -33q-139 0 -139 148q0 118 98 159l545 230l532 -230q107 -34 107 -159z" />
    <glyph glyph-name="Aacute" unicode="&#xc1;" horiz-adv-x="2503" 
d="M2474 111q0 -144 -168 -144q-61 0 -112 35q-47 30 -72 100l-193 529h-1351l-193 -529q-46 -127 -184 -127q-155 0 -168 144q5 24 13 53l11 45l942 2519q40 107 104 161q68 56 146 56q85 0 152 -54q63 -52 102 -155l955 -2527q16 -66 16 -106zM1823 942l-566 1585h-8
l-561 -1585h1135zM1696 3519q0 -95 -135 -152l-479 -201q-39 -16 -123 -20q-67 -3 -116 40q-46 40 -52 103q15 117 159 176l484 197q28 16 94 16q65 0 116.5 -47.5t51.5 -111.5z" />
    <glyph glyph-name="Edieresis" unicode="&#xcb;" horiz-adv-x="1815" 
d="M1647 160q0 -160 -177 -160h-1052q-176 0 -176 193v2527q0 76 36 133q43 67 115 67h1102q152 0 152 -167q0 -168 -160 -168h-889v-963h811q160 0 160 -168t-168 -168h-803v-950h897q152 0 152 -176zM1528 3342q0 -91 -66.5 -154t-158.5 -63q-93 0 -157 62.5t-64 154.5
q0 96 62.5 160.5t158.5 64.5t160.5 -64.5t64.5 -160.5zM762 3342q0 -91 -63 -154t-154 -63q-93 0 -159 62.5t-66 154.5q0 97 64 161t161 64q94 0 155.5 -65.5t61.5 -159.5z" />
    <glyph glyph-name="Egrave" unicode="&#xc8;" horiz-adv-x="1815" 
d="M1647 160q0 -160 -177 -160h-1052q-176 0 -176 193v2527q0 76 36 133q43 67 115 67h1102q152 0 152 -167q0 -168 -160 -168h-889v-963h811q160 0 160 -168t-168 -168h-803v-950h897q152 0 152 -176zM1392 3297q0 -138 -176 -151q-32 6 -94 20l-520 209q-116 46 -131 152
q0 69 53 118.5t123 49.5q49 0 65 -9l545 -229q135 -57 135 -160z" />
    <glyph glyph-name="Iacute" unicode="&#xcd;" horiz-adv-x="831" 
d="M598 176q0 -201 -172 -201q-184 0 -184 193v2585q0 192 184 192q172 0 172 -192v-2577zM832 3511q0 -95 -135 -152l-479 -201q-39 -16 -123 -20q-67 -3 -116 40q-46 40 -52 103q15 117 159 176l484 197q28 16 94 16q65 0 116.5 -47.5t51.5 -111.5z" />
    <glyph glyph-name="Icircumflex" unicode="&#xce;" horiz-adv-x="831" 
d="M598 176q0 -201 -172 -201q-184 0 -184 193v2585q0 192 184 192q172 0 172 -192v-2577zM1057 3281q0 -136 -152 -148q-57 14 -98 25l-389 159l-385 -151q-40 -16 -119 -33q-139 0 -139 148q0 118 98 159l545 230l532 -230q107 -34 107 -159z" />
    <glyph glyph-name="Idieresis" unicode="&#xcf;" horiz-adv-x="831" 
d="M598 176q0 -201 -172 -201q-184 0 -184 193v2585q0 192 184 192q172 0 172 -192v-2577zM1024 3350q0 -91 -66.5 -154t-158.5 -63q-93 0 -157 62.5t-64 154.5q0 96 62.5 160.5t158.5 64.5t160.5 -64.5t64.5 -160.5zM258 3350q0 -91 -63 -154t-154 -63q-93 0 -159 62.5
t-66 154.5q0 97 64 161t161 64q94 0 155.5 -65.5t61.5 -159.5z" />
    <glyph glyph-name="Igrave" unicode="&#xcc;" horiz-adv-x="831" 
d="M598 176q0 -201 -172 -201q-184 0 -184 193v2585q0 192 184 192q172 0 172 -192v-2577zM889 3272q0 -138 -176 -151q-32 6 -94 20l-520 209q-116 46 -131 152q0 69 53 118.5t123 49.5q49 0 65 -9l545 -229q135 -57 135 -160z" />
    <glyph glyph-name="Oacute" unicode="&#xd3;" horiz-adv-x="2802" 
d="M2687 1454q3 -391 -153 -737q-159 -350 -450 -544q-295 -198 -675 -198q-365 0 -660 191q-288 187 -453 519q-169 337 -169 769q0 389 143 718q156 358 453 567q293 206 686 206q593 0 940 -444q161 -207 247 -474q88 -279 91 -573zM2306 1462q3 566 -260 880
q-245 292 -637 292q-539 0 -778 -538q-119 -266 -119 -634q0 -653 363 -989q200 -186 534 -186q307 0 526 188q202 173 298 475q72 225 73 512zM1856 3527q0 -95 -135 -152l-479 -201q-39 -16 -123 -20q-67 -3 -116 40q-46 40 -52 103q15 117 159 176l484 197q28 16 94 16
q65 0 116.5 -47.5t51.5 -111.5z" />
    <glyph glyph-name="Ocircumflex" unicode="&#xd4;" horiz-adv-x="2802" 
d="M2687 1454q3 -391 -153 -737q-159 -350 -450 -544q-295 -198 -675 -198q-365 0 -660 191q-288 187 -453 519q-169 337 -169 769q0 389 143 718q156 358 453 567q293 206 686 206q593 0 940 -444q161 -207 247 -474q88 -279 91 -573zM2306 1462q3 566 -260 880
q-245 292 -637 292q-539 0 -778 -538q-119 -266 -119 -634q0 -653 363 -989q200 -186 534 -186q307 0 526 188q202 173 298 475q72 225 73 512zM2048 3290q0 -136 -152 -148q-57 14 -98 25l-389 159l-385 -151q-40 -16 -119 -33q-139 0 -139 148q0 118 98 159l545 230
l532 -230q107 -34 107 -159z" />
    <glyph glyph-name="Ograve" unicode="&#xd2;" horiz-adv-x="2802" 
d="M2687 1454q3 -391 -153 -737q-159 -350 -450 -544q-295 -198 -675 -198q-365 0 -660 191q-288 187 -453 519q-169 337 -169 769q0 389 143 718q156 358 453 567q293 206 686 206q593 0 940 -444q161 -207 247 -474q88 -279 91 -573zM2306 1462q3 566 -260 880
q-245 292 -637 292q-539 0 -778 -538q-119 -266 -119 -634q0 -653 363 -989q200 -186 534 -186q307 0 526 188q202 173 298 475q72 225 73 512zM1872 3305q0 -138 -176 -151q-32 6 -94 20l-520 209q-116 46 -131 152q0 69 53 118.5t123 49.5q49 0 65 -9l545 -229
q135 -57 135 -160z" />
    <glyph glyph-name="Uacute" unicode="&#xda;" horiz-adv-x="2728" 
d="M2494 1126q0 -733 -490 -1010q-249 -141 -620 -141q-572 0 -863 314q-279 301 -279 829v1643q0 184 176 184q180 0 180 -184v-1753q0 -462 386 -638q188 -86 409 -83t398 99q351 189 351 622v1753q0 184 168 184q184 0 184 -184v-1635zM1815 3527q0 -95 -135 -152
l-479 -201q-39 -16 -123 -20q-67 -3 -116 40q-46 40 -52 103q15 117 159 176l484 197q28 16 94 16q65 0 116.5 -47.5t51.5 -111.5z" />
    <glyph glyph-name="Ucircumflex" unicode="&#xdb;" horiz-adv-x="2728" 
d="M2494 1126q0 -733 -490 -1010q-249 -141 -620 -141q-572 0 -863 314q-279 301 -279 829v1643q0 184 176 184q180 0 180 -184v-1753q0 -462 386 -638q188 -86 409 -83t398 99q351 189 351 622v1753q0 184 168 184q184 0 184 -184v-1635zM1999 3281q0 -136 -152 -148
q-57 14 -98 25l-389 159l-385 -151q-40 -16 -119 -33q-139 0 -139 148q0 118 98 159l545 230l532 -230q107 -34 107 -159z" />
    <glyph glyph-name="Ugrave" unicode="&#xd9;" horiz-adv-x="2728" 
d="M2494 1126q0 -733 -490 -1010q-249 -141 -620 -141q-572 0 -863 314q-279 301 -279 829v1643q0 184 176 184q180 0 180 -184v-1753q0 -462 386 -638q188 -86 409 -83t398 99q351 189 351 622v1753q0 184 168 184q184 0 184 -184v-1635zM1831 3297q0 -138 -176 -151
q-32 6 -94 20l-520 209q-116 46 -131 152q0 69 53 118.5t123 49.5q49 0 65 -9l545 -229q135 -57 135 -160z" />
    <glyph glyph-name="circumflex" unicode="&#x2c6;" horiz-adv-x="831" 
d="M1057 2626q0 -136 -152 -148q-57 14 -98 25l-389 159l-385 -151q-40 -16 -119 -33q-139 0 -139 148q0 118 98 159l545 230l532 -230q107 -34 107 -159z" />
    <glyph glyph-name="tilde" unicode="&#x2dc;" horiz-adv-x="831" 
d="M1024 2785q0 -129 -139 -202q-106 -56 -254 -64q-17 8 -37 8q-60 0 -192.5 37t-200.5 37q-52 0 -131 -31l-127 -51q-127 62 -127 160q0 92 41 139q104 119 319 119q85 0 225 -35q162 -40 222 -47q39 3 131 43q88 39 135 39q57 0 96 -47t39 -105z" />
    <glyph glyph-name="cedilla" unicode="&#xb8;" horiz-adv-x="831" 
d="M999 -385q4 -174 -123 -265q-124 -87 -331 -87q-295 0 -295 143q0 115 78 115q36 0 108 -20.5t109 -20.5q143 0 143 110q0 63 -66 78q-19 4 -118 4q-107 0 -119 70q11 47 41 106l111 152h217l-123 -176q31 5 90 16q113 -6 193 -67q83 -64 85 -158z" />
    <glyph glyph-name="Eth" unicode="&#xd0;" horiz-adv-x="2585" 
d="M2458 1470q-3 -423 -149 -762q-305 -708 -1092 -708h-771q-73 0 -128 42q-60 46 -60 118v1159h-172q-160 0 -160 151q0 152 168 152h164v1106q0 192 188 192h738q380 0 673 -187.5t450 -533.5q153 -338 151 -729zM2073 1495q0 519 -258 818q-256 296 -689 296h-512v-987
h504q168 0 168 -152q0 -151 -168 -151h-504v-1008h562q315 0 566 221q331 292 331 963z" />
    <glyph glyph-name="eth" unicode="&#xf0;" 
d="M2064 1225q0 -783 -435 -1092q-222 -158 -548 -158q-279 0 -499 155q-212 149 -327 410q-112 253 -112 533q0 446 247 768q262 342 691 342q329 0 512 -246l9 9q-130 343 -496 655l-352 -168q-64 -30 -131 -41q-54 11 -74 56l-21 46q15 81 70 107l324 152q-54 41 -171 93
q-120 54 -170 91q-44 31 -44 102q0 127 151 127q224 0 553 -254l377 193q64 33 111 33q102 0 102 -99q0 -78 -86 -119l-320 -151q427 -375 571 -965q68 -280 68 -579zM1704 1073q0 447 -267 676q-136 115 -331 115q-386 0 -536 -412q-66 -182 -66 -379q0 -445 269 -671
q136 -115 333 -115q381 0 532 410q66 180 66 376z" />
    <glyph glyph-name="Yacute" unicode="&#xdd;" horiz-adv-x="1974" 
d="M2040 2793q0 -60 -33 -114l-799 -1303v-1208q0 -84 -49 -141q-52 -60 -135 -60q-78 0 -129 62q-47 59 -47 139v1208l-799 1295q-39 80 -49 131q0 61 50 103q47 40 110 40q116 0 176 -98l688 -1118l688 1110q66 106 168 106q160 0 160 -152zM1479 3535q0 -95 -135 -152
l-479 -201q-39 -16 -123 -20q-67 -3 -116 40q-46 40 -52 103q15 117 159 176l484 197q28 16 94 16q65 0 116.5 -47.5t51.5 -111.5z" />
    <glyph glyph-name="yacute" unicode="&#xfd;" horiz-adv-x="1745" 
d="M1753 2032q0 -40 -16 -86l-946 -2691q-28 -80 -75 -117q-55 -43 -122 -43q-133 0 -148 168q9 32 25 114l266 705l-651 1864q-4 28 -20 94q0 160 167 160q143 0 185 -127l495 -1495h9l495 1503q42 127 168 127q168 0 168 -176zM1360 2872q0 -95 -135 -152l-479 -201
q-39 -16 -123 -20q-67 -3 -116 40q-46 40 -52 103q15 117 159 176l484 197q28 16 94 16q65 0 116.5 -47.5t51.5 -111.5z" />
    <glyph glyph-name="Thorn" unicode="&#xde;" horiz-adv-x="2130" 
d="M2089 1544q0 -527 -459 -784q-215 -121 -479 -121h-553v-471q0 -209 -180 -209q-82 0 -131 65q-45 60 -45 144v2585q0 85 45 143q49 65 131 65q180 0 180 -208v-295h545q580 0 831 -453q115 -210 115 -461zM1729 1544q0 348 -264 517q-139 89 -355 89h-512v-1200h528
q362 0 527 295q76 136 76 299z" />
    <glyph glyph-name="thorn" unicode="&#xfe;" horiz-adv-x="2281" 
d="M2134 1106q0 -667 -442 -981q-212 -150 -484 -150q-365 0 -585 295h-9v-966q0 -217 -176 -217q-78 0 -131 67q-49 61 -49 141v3683q0 180 172 180q184 0 184 -172v-1073h9q148 289 544 295q207 3 394 -80q361 -163 502 -577q70 -207 71 -445zM1778 1090q2 199 -61 388
q-61 182 -189 297q-133 118 -320 121q-222 4 -363.5 -114.5t-201.5 -298.5q-63 -191 -65 -385q-3 -366 164 -591q164 -222 425 -228q15 7 33 8q364 22 507 400q68 184 71 403z" />
    <glyph glyph-name="onesuperior" unicode="&#xb9;" horiz-adv-x="938" 
d="M647 1294q0 -109 -143 -127q-144 18 -144 127v1377h-217q-102 0 -118 122q15 127 118 127h435q69 0 69 -57v-1569z" />
    <glyph glyph-name="twosuperior" unicode="&#xb2;" horiz-adv-x="1425" 
d="M1303 1311q0 -119 -144 -119h-909q-118 0 -131 82q16 56 33 78l729 913q102 128 102 221q0 100 -84 158q-74 51 -178 51q-134 0 -239 -101t-105 -235q0 -88 -127 -102q-123 15 -123 143q0 250 183 402q172 143 427 143q228 0 376 -105q169 -119 169 -337
q0 -154 -156 -344l-589 -717h622q144 0 144 -131z" />
    <glyph glyph-name="threesuperior" unicode="&#xb3;" horiz-adv-x="1425" 
d="M1303 1704q0 -250 -204 -401q-185 -136 -444 -136q-416 0 -520 353q-4 25 -16 73q18 136 114 136q73 0 111 -82q86 -183 225 -213q35 -4 103 -17q136 6 233 84q101 81 103 187q3 147 -65 223q-66 71 -222 71q-176 0 -176 107q0 82 143 119q229 60 225 286q-2 95 -80 150
q-74 51 -178 51q-101 0 -175 -52t-79 -140q-2 -47 -36 -76t-86 -35q-103 13 -103 160q20 189 157.5 292.5t371.5 100.5q226 -3 362 -139q133 -134 133 -320q0 -246 -217 -364q320 -96 320 -418z" />
    <glyph glyph-name="onehalf" unicode="&#xbd;" horiz-adv-x="3297" 
d="M3031 119q0 -119 -143 -119h-906q-114 0 -127 82q28 62 33 70l721 921q103 132 103 221q0 100 -79 157q-72 52 -175 52q-137 0 -244 -98q-109 -101 -109 -238q0 -89 -123 -102q-118 15 -118 143q0 253 182 404q170 141 428 141q226 0 371 -110q161 -122 161 -340
q0 -176 -143 -345l-598 -708h631q135 0 135 -131zM2073 2855q0 -56 -50 -176l-1093 -2613q-51 -123 -156 -123q-120 0 -143 106q5 32 41 119l1122 2695q48 115 143 115q136 0 136 -123zM770 1294q0 -110 -156 -127q-143 22 -143 127v1377h-209q-112 0 -127 122
q15 127 123 127h430q82 0 82 -57v-1569z" />
    <glyph glyph-name="onequarter" unicode="&#xbc;" horiz-adv-x="3297" 
d="M3154 520q0 -119 -107 -119h-102v-307q0 -119 -143 -119q-156 0 -156 127v299h-733q-79 0 -90 86q15 76 65 152l656 991q81 123 209 123q192 0 192 -160v-954h94q115 0 115 -119zM2200 2855q0 -56 -50 -176l-1093 -2613q-51 -123 -152 -123q-126 0 -143 106q8 48 37 119
l1122 2695q48 115 143 115q136 0 136 -123zM770 1294q0 -110 -156 -127q-143 22 -143 127v1377h-209q-102 0 -119 122q16 127 115 127h430q82 0 82 -57v-1569zM2646 639v815h-4l-475 -815h479z" />
    <glyph glyph-name="threequarters" unicode="&#xbe;" horiz-adv-x="3297" 
d="M3154 520q0 -119 -98 -119h-111v-307q0 -119 -143 -119q-156 0 -156 127v299h-733q-79 0 -90 86q15 76 65 152l656 991q81 123 209 123q192 0 192 -160v-954h102q107 0 107 -119zM2449 2855q0 -59 -49 -176l-1097 -2613q-52 -123 -152 -123q-112 0 -135 106q12 82 33 119
l1118 2695q48 115 143 115q139 0 139 -123zM1352 1696q0 -247 -201 -396q-182 -133 -438 -133q-416 0 -520 353q-5 25 -17 73q18 136 111 136q82 0 114 -82q71 -181 222 -213q36 -4 106 -17q125 6 220 75q103 77 116 196q0 294 -291 294q-176 0 -176 107q0 52 33 77
q25 19 114 42q217 57 213 286q-2 97 -74 151q-68 50 -171 50q-102 0 -181 -51q-81 -54 -86 -141q-2 -47 -33 -76t-77 -35q-103 12 -103 160q20 189 156.5 292.5t372.5 100.5q226 -3 362 -139q133 -134 133 -320q0 -237 -225 -364q320 -97 320 -426zM2646 639v815h-4
l-475 -815h479z" />
    <glyph glyph-name="euro" 
d="M2138 490q27 -37 27 -93q0 -81 -49 -133q-136 -144 -326 -211q-180 -64 -389 -64q-390 0 -647 315q-222 272 -285 681h-229q-160 0 -160 137t160 137h199q-7 88 -7 172q0 120 7 228h-200q-160 0 -160 137t160 137h227q52 404 288 693q271 333 666 333q466 0 671 -300
q40 -59 40 -121q0 -60 -40 -103t-95 -43q-50 0 -89 35q-151 134 -222 169q-104 52 -280 52q-234 0 -387 -220q-136 -195 -170 -495h785q160 0 160 -137t-160 -137h-813q-9 -115 -9 -228q0 -83 7 -172h616q160 0 160 -137t-160 -137h-583q42 -295 174 -476q152 -208 388 -208
q146 0 286 58q65 27 111 61q78 58 111 79q61 38 120 38q62 0 97 -47z" />
    <glyph glyph-name="euro" unicode="&#x20ac;" 
d="M2138 490q27 -37 27 -93q0 -81 -49 -133q-136 -144 -326 -211q-180 -64 -389 -64q-390 0 -647 315q-222 272 -285 681h-229q-160 0 -160 137t160 137h199q-7 88 -7 172q0 120 7 228h-200q-160 0 -160 137t160 137h227q52 404 288 693q271 333 666 333q466 0 671 -300
q40 -59 40 -121q0 -60 -40 -103t-95 -43q-50 0 -89 35q-151 134 -222 169q-104 52 -280 52q-234 0 -387 -220q-136 -195 -170 -495h785q160 0 160 -137t-160 -137h-813q-9 -115 -9 -228q0 -83 7 -172h616q160 0 160 -137t-160 -137h-583q42 -295 174 -476q152 -208 388 -208
q146 0 286 58q65 27 111 61q78 58 111 79q61 38 120 38q62 0 97 -47z" />
    <glyph glyph-name="HT" horiz-adv-x="0" 
 />
    <glyph glyph-name="nonmarkingreturn" horiz-adv-x="0" 
 />
    <glyph glyph-name="fi" unicode="&#xf001;" horiz-adv-x="1815" 
d="M1704 2720q0 -91 -63 -158.5t-154 -67.5q-92 0 -156.5 67t-64.5 159q0 94 64 159.5t157 65.5q92 0 154.5 -66t62.5 -159zM1663 160q0 -185 -184 -185q-77 0 -126.5 54t-49.5 131v1855q0 193 176 193q184 0 184 -185v-1863zM1143 2998q0 -143 -185 -143h-110
q-135 0 -135 -160v-512h229q162 0 176 -143q0 -168 -176 -168h-229v-1712q0 -185 -185 -185q-78 0 -127 53t-49 132v1712h-151q-182 0 -176 168q6 143 184 143h143v520q0 205 135 326q145 131 336 137q320 10 320 -168z" />
    <glyph glyph-name="fl" unicode="&#xf002;" horiz-adv-x="1815" 
d="M1655 168q0 -193 -185 -193q-79 0 -129 58q-47 55 -47 135v2802q0 188 176 188q185 0 185 -180v-2810zM1143 2998q0 -143 -185 -143h-110q-135 0 -135 -160v-512h229q162 0 176 -143q0 -168 -176 -168h-229v-1712q0 -185 -185 -185q-78 0 -127 53t-49 132v1712h-151
q-182 0 -176 168q6 143 184 143h143v520q0 205 135 326q145 131 336 137q320 10 320 -168z" />
    <glyph glyph-name="dotlessi" unicode="&#x131;" horiz-adv-x="831" 
d="M598 160q0 -185 -180 -185q-78 0 -127 53t-49 132v1863q0 185 176 185q180 0 180 -193v-1855z" />
    <glyph glyph-name="breve" unicode="&#x2d8;" horiz-adv-x="831" 
d="M967 2855q0 -226 -306 -346q-130 -51 -243 -51q-279 0 -465 194q-88 91 -88 203q0 151 127 151q44 0 144 -84l139 -120q46 -33 143 -33q93 0 161 44q27 17 130 111q90 82 139 82q119 0 119 -151z" />
    <glyph glyph-name="ring" unicode="&#x2da;" horiz-adv-x="831" 
d="M807 2777q0 -160 -114.5 -272.5t-274.5 -112.5q-158 0 -271.5 113.5t-113.5 271.5q0 160 112.5 274.5t272.5 114.5q162 0 275.5 -113.5t113.5 -275.5zM606 2777q0 77 -55.5 135t-132.5 58q-78 0 -131.5 -57.5t-53.5 -135.5q0 -79 53 -131.5t132 -52.5t133.5 53t54.5 131z
" />
  </font>
</defs>
</svg>
